<?xml version="1.0" encoding="UTF-8"?>
<svg id="Layer_1" data-name="Layer 1" xmlns="http://www.w3.org/2000/svg" version="1.1" viewBox="0 0 1981 672">
  <defs>
    <style>
      .cls-1 {
        fill: #000;
        stroke-width: 0px;
      }
    </style>
  </defs>
  <path class="cls-1" d="M453.8,216.4h-73.1c-38.1,38.1-75.3,75.2-112.3,112.1h43.5l33.2,33.2c-.8,14.4-.5,29.4-.6,44.6,1.7,0,2.1-1.1,2.7-1.7,35.9-35.8,71.8-71.8,107.7-107.6,1.7-1.7,2.3-3.4,2.3-5.7v-68.9c0-2.6-.7-4.6-3.4-6h0Z"/>
  <path class="cls-1" d="M311.6,359.3h-74.3c-33.2,33.1-66,65.8-99.1,98.8.3,14.4-.3,29.1-.5,43.1,11.8,11.8,23.1,23.1,34.8,34.8,14.2-.4,28.9-.8,43.2-.6,33.1-33.2,65.8-66,98.7-99v-74.4c-.8-1.2-1.6-2.1-2.7-2.6h-.1Z"/>
  <path class="cls-1" d="M59-.2L-.5,59.4v118.9l61,61h174.1L41.9,431.9v158.4l18.5,18.6,2.6,2.5,18.5,18.6h158.4l192.7-192.8v174.1l61,61h119l59.5-59.5V2.3l-2.6-2.5s-610.5,0-610.5,0ZM592.1,647.2h0c0,0-79.9,0-79.9,0-18.1-18.1-35.9-35.8-54-54-.6-57.5.4-115.4.4-173.7,4-3.8,8.2-7.7,12.3-11.5-6.9-6.8-13.6-13.3-19.9-19.7-73.4,73.2-146.8,146.6-219.7,219.5-44.3.6-87.8-.3-130.8-.2-11.7-11.7-22.9-23-34.5-34.5v-129.5c73.6-73.6,146.8-147,220-220.2l-19.9-19.9c-3.6,3.9-7.5,8.2-10.4,11.6H80.4c-17.7-17.8-35.4-35.4-53.5-53.6v-81l54.9-54.9h563.4c1.4.4,2,1.3,2.3,1.8,1.4,188.2,0,376.2.8,563.6-18.9,18.9-37.3,37.3-56.2,56.1v.2Z"/>
  <path class="cls-1" d="M587.4,105.9h0c0-4.5,0-8.9,0-13.3,0-2.7-.6-4.9-3.2-6.2H122c-10,10-19.8,19.8-30.1,30.1-.8,5.4-.4,11.5-.3,16.7,8.9,8.8,17.1,17.1,25.9,25.7,73.9-1.3,148.4,0,222.9.1,9.4,9.4,18.6,18.5,27.6,27.7,2.1,2.1,4.2,3,7.3,2.9h72.5c1.7,0,3.4-.2,4.6.6,10.3,10.3,20.7,20.7,31.5,31.5-.6,26.7.7,54,.5,81.8,10.2,10.2,20.4,20.3,30.5,30.4v222.8c8.5,8.5,16.9,16.8,25.6,25.5h15c1.3,0,2.6-.3,3.6-1.3,9.4-9.5,18.8-18.9,28.4-28.5v-4.2c0-22.5,0-45.1,0-67.6,0-66,0-132,0-198s0-117.9,0-176.9v.2Z"/>
  <path class="cls-1" d="M754.5,326.9c5.8,8.2,14.6,14.8,26.4,19.9,11.8,5.1,25.3,7.6,40.7,7.6s26-2.1,36.2-6.4,18.5-10.6,24.7-18.9c6.3-8.3,10-16.4,11.3-24.3s1.9-21.6,1.9-41.1V91.4h-67v189.8c0,12.8-.6,21-1.8,24.4s-4,5.2-8.2,5.2-6.2-1.6-7.4-4.7-1.8-10.3-1.8-21.6V91.4h-67v152.4c0,29.1.5,48.1,1.6,57.2s4.5,17.7,10.3,25.9h0Z"/>
  <path class="cls-1" d="M988.7,245.2h18c14.6,0,26.5-2,35.6-6,9.1-4,15.3-9.8,18.7-17.3,3.4-7.5,5.1-19.5,5.1-36v-22.4c0-16.1-.9-28-2.6-35.7-1.8-7.7-5.1-14.2-10-19.6s-12.3-9.5-22.1-12.4c-9.8-2.9-23.8-4.3-42.1-4.3h-67.5v257.6h67v-103.9ZM988.7,135.5c8.7,0,14.4,1.3,17.2,4s4.1,8.4,4.1,17.2v21.2c0,9.5-1.2,15.8-3.6,18.9-2.4,3-6.7,4.5-12.8,4.5s-3,0-4.9-.2v-65.5h0Z"/>
  <path class="cls-1" d="M1098.5,212.8c5.4,5,16.4,13,33.1,24,16.6,10.9,27.1,18.7,31.3,23.4,4.1,4.7,6.2,14.6,6.2,29.7s-1.1,12.1-3.3,15.6c-2.2,3.5-5.5,5.3-9.9,5.3s-7.6-1.4-9.3-4.1c-1.7-2.8-2.6-9-2.6-18.6v-31.3h-62.2v16.9c0,19.3,2,34.2,5.9,44.7s12.2,19.1,24.9,25.9c12.7,6.8,28,10.2,45.9,10.2s30.6-2.9,43-8.8c12.3-5.9,20.6-13.2,24.9-21.9,4.3-8.7,6.4-22.2,6.4-40.6s-3.9-43.5-11.6-54.9c-7.7-11.3-26.5-25.9-56.3-43.6-10.4-6.1-16.7-11.4-18.9-15.7-2.3-4.4-3.5-10.8-3.5-19.4s1-11.7,3.1-15,5.1-4.9,9.1-4.9,6.4,1.2,8,3.7c1.6,2.4,2.4,8.1,2.4,17v19.1h62.2v-10.2c0-20.5-2-35-6-43.5s-12.1-15.6-24.3-21.2c-12.2-5.6-27.1-8.4-44.5-8.4s-29.5,2.6-40.7,7.7-19.4,12.3-24.4,21.4-7.6,23.5-7.6,43.3,1.8,24.9,5.3,33.7c3.6,8.8,8,15.7,13.4,20.7v-.2Z"/>
  <polygon class="cls-1" points="1281.9 349 1348.9 349 1348.9 143 1388.6 143 1388.6 91.4 1242.3 91.4 1242.3 143 1281.9 143 1281.9 349"/>
  <path class="cls-1" d="M1546,202.1c5-6.9,7.5-20.4,7.5-40.4s-3.5-37.9-10.6-48c-7.1-10-16.2-16.3-27.4-18.7-11.2-2.4-32.6-3.7-64.2-3.7h-47.4v257.6h67v-116.1c9.2,0,14.9,1.6,17.1,4.9,2.2,3.3,3.3,11.8,3.3,25.6v85.6h62.2v-67.9c0-20.8-.6-33.5-1.7-38.1s-4-9.7-8.5-15.2c-4.6-5.5-13.5-9.9-26.7-13.2,14.6-1.4,24.4-5.5,29.4-12.4h0ZM1491.2,169.5c0,11.3-1.5,18.1-4.5,20.1-3,2.1-8.3,3.1-15.8,3.1v-57.3c7.7,0,13.1,1.3,16,3.8s4.4,7.9,4.4,16.1v14.2h0Z"/>
  <polygon class="cls-1" points="1646.4 240.8 1688.2 240.8 1688.2 191.8 1646.4 191.8 1646.4 143 1691.1 143 1691.1 91.4 1579.4 91.4 1579.4 349 1695.5 349 1695.5 297.4 1646.4 297.4 1646.4 240.8"/>
  <polygon class="cls-1" points="1830.9 297.4 1781.7 297.4 1781.7 240.8 1823.6 240.8 1823.6 191.8 1781.7 191.8 1781.7 143 1826.4 143 1826.4 91.4 1714.8 91.4 1714.8 349 1830.9 349 1830.9 297.4"/>
  <polygon class="cls-1" points="1834.4 91.4 1834.4 143 1874 143 1874 349 1941 349 1941 143 1980.8 143 1980.8 91.4 1834.4 91.4"/>
  <path class="cls-1" d="M1388.6,417.7c-43.4,0-81.2,1.9-118.6-.6-26.5-1.8-43.2,12.4-59.9,31.4,29.2-3.9,57.9-4.9,92.6-1.9-55.1,44.4-105.5,85-156,125.6,31.2-1.6,61.6-2.3,84.6-27.1,8.8-9.5,17.3-10.5,26.6-.5,22.8,24.6,53.1,26.2,84.5,27-23.4-18.9-46.6-37.8-72-58.2,39.5-32,76.6-62,118.1-95.8h.2Z"/>
  <path class="cls-1" d="M922.1,518.6c-1-14.7,1.7-30.7-2.5-44-3.4-10.6-19,0-28.5-7.6,13.5-22.9,26.7-45.2,40.2-67.9h-188.6c21,10.8,26.9,35.2,47.3,28.9,27.7-8.6,54.9-2.2,89.5-4.6-24.4,27.9-30.7,56-32.1,86-.2,4.8-4.8,10.1,1.7,13.1,5.5,2.5,8.7-2.3,11.5-6.8,6.3-10.1,12.6-20.1,21.5-34.3,3.3,52.4,3.3,52.7,18.9,52.7s22.4,3.8,21.2-15.4h0Z"/>
  <path class="cls-1" d="M837.2,437.4c-10.2,1.1-25-8.3-27.2,14.4-3.5,36.5-8.3,72.9-13.4,109.2-2.5,17.2,3.7,22.5,18.1,19.5,14.8,3.2,19.5-3.6,20.8-19.5,2.8-34.8,7.7-69.4,12-104.1,1.2-9.6,4.4-21-10.3-19.4h0Z"/>
  <path class="cls-1" d="M1073.4,490.1c-32.5-6.1-56.4-2.7-77.4,17.8-9.5,9.3-21.2,15.9-31.8,23.7.4-16.4.7-32.9,1-49.3.3-15.9-10.9-12-18.9-11.8-7.5.2-19.1-5.2-19.2,11,0,21.8,0,43.6,0,65.8,11.6-1.7,16.7-11,25.6-9.2h0c-9,16.1-28.9,19.5-38.6,37,66.5,1,105.9-50.4,159.3-85h0Z"/>
  <path class="cls-1" d="M1169.1,418.6h-174.6c20.6,19.4,32.9,36.6,62.1,28.1,28-8.1,59.3-2.9,89.1-3.5-.4,1.8-.7,3.6-1.1,5.4h0c-53.6,42.2-107.4,84.4-161,126.6,26.1-5,53.6-1.7,75.2-18.8,42.2-33.4,158.3-128.2,168.7-137.9h-58.3Z"/>
  <g>
    <path class="cls-1" d="M1404.1,569.9l-.2-159.4c67.2,22.3,121.7,89.1,129.3,159.4h-129ZM1427.1,447.8l.2,98.7h77.2c-15.2-43.1-37.7-75-77.5-98.7Z"/>
    <path class="cls-1" d="M1616.4,573c-45.8,0-83.1-37.3-83.1-83.1s37.3-83.1,83.1-83.1,83.1,37.3,83.1,83.1-37.3,83.1-83.1,83.1ZM1616.4,430.8c-32.6,0-59.2,26.6-59.2,59.2s26.6,59.2,59.2,59.2,59.2-26.6,59.2-59.2-26.6-59.2-59.2-59.2Z"/>
    <path class="cls-1" d="M1702.8,410h129.7v23.7h-101.4c19.2,53.1,49.3,88.4,101.4,111.2v24.8c-67.4-22.1-122.1-89.1-129.7-159.6Z"/>
    <path class="cls-1" d="M1890.4,433.9c-7.6,0-16.3,4-16.3,12.7s10.7,11.2,17.9,11.2h68.8c3.6,0,17.4-1.1,17.4,4.5s0,2.9-.2,3.8c-13.8,51.6-75.2,98.2-127.5,103.8v-24.3c11.2,0,22.1-4,31.9-8.7,13.8-6.7,62.1-38.8,62.1-54.3s-.9-2-1.6-2.5l-41.3.2c-24.1.2-51.1-3.1-51.1-33.9s16.5-36.2,35.7-36.2h94.7v23.7h-90.4Z"/>
  </g>
</svg>