<?xml version="1.0" encoding="UTF-8"?>
<svg id="Layer_1" data-name="Layer 1" xmlns="http://www.w3.org/2000/svg" version="1.1" viewBox="0 0 1981 672">
  <defs>
    <style>
      .cls-1 {
        fill: #fff;
        stroke-width: 0px;
      }
    </style>
  </defs>
  <path class="cls-1" d="M453.8,216.4h-73.1c-38.1,38.1-75.3,75.2-112.3,112.1h43.5l33.2,33.2c-.8,14.4-.5,29.4-.6,44.6,1.7,0,2.1-1.1,2.7-1.7,35.9-35.8,71.8-71.8,107.7-107.6,1.7-1.7,2.3-3.4,2.3-5.7v-68.9c0-2.6-.7-4.6-3.4-6Z"/>
  <path class="cls-1" d="M311.6,359.3h0s-74.3,0-74.3,0c-33.2,33.1-66,65.8-99.1,98.8.3,14.4-.3,29.1-.5,43.1,11.8,11.8,23.1,23.1,34.8,34.8,14.2-.4,28.9-.8,43.2-.6,33.1-33.2,65.8-66,98.7-99v-74.4c-.8-1.2-1.6-2.1-2.7-2.6Z"/>
  <path class="cls-1" d="M59-.2L-.5,59.4v118.9l61,61h174.1L41.9,431.9v158.4l18.5,18.6,2.6,2.5,18.5,18.6h158.4l192.7-192.8v174.1l61,61h119l59.5-59.5V2.3l-2.6-2.5H59ZM592.1,647.2h0c0-.1-79.9-.1-79.9-.1-18.1-18.1-35.9-35.8-54-54-.6-57.5.4-115.4.4-173.7,4-3.8,8.2-7.7,12.3-11.5-6.9-6.8-13.6-13.3-19.9-19.7-73.4,73.2-146.8,146.6-219.7,219.5-44.3.6-87.8-.3-130.8-.2-11.7-11.7-22.9-23-34.5-34.5v-129.5c73.6-73.6,146.8-147,220-220.2-6.6-6.6-13.1-13.1-19.9-19.9-3.6,3.9-7.5,8.2-10.4,11.6H80.4c-17.7-17.8-35.4-35.4-53.5-53.6v-81l54.9-54.9h563.4c1.4.4,2,1.3,2.3,1.8,1.4,188.2,0,376.2.8,563.6-18.9,18.9-37.3,37.3-56.2,56.1Z"/>
  <path class="cls-1" d="M587.4,105.9h0c0-4.5-.1-8.9,0-13.3,0-2.7-.6-4.9-3.2-6.2H122c-10,10-19.8,19.8-30.1,30.1-.8,5.4-.4,11.5-.3,16.7,8.9,8.8,17.1,17.1,25.9,25.7,73.9-1.3,148.4,0,222.9.1,9.4,9.4,18.6,18.5,27.6,27.7,2.1,2.1,4.2,3,7.3,2.9h72.5c1.7,0,3.4-.2,4.6.6,10.3,10.3,20.7,20.7,31.5,31.5-.6,26.7.7,54,.5,81.8,10.2,10.2,20.4,20.3,30.5,30.4v222.8c8.5,8.5,16.9,16.8,25.6,25.5h15c1.3,0,2.6-.3,3.6-1.3,9.4-9.5,18.8-18.9,28.4-28.5v-4.2c0-22.5-.1-45.1-.1-67.6,0-66,.1-132,.1-198s0-117.9-.1-176.9Z"/>
  <path class="cls-1" d="M754.5,326.9c5.8,8.2,14.6,14.8,26.4,19.9,11.8,5.1,25.3,7.6,40.7,7.6s26-2.1,36.2-6.4c10.2-4.3,18.5-10.6,24.7-18.9,6.3-8.3,10-16.4,11.3-24.3,1.3-7.9,1.9-21.6,1.9-41.1V91.4h-67v189.8c0,12.8-.6,21-1.8,24.4-1.2,3.4-4,5.2-8.2,5.2s-6.2-1.6-7.4-4.7c-1.2-3.1-1.8-10.3-1.8-21.6V91.4h-67v152.4c0,29.1.5,48.1,1.6,57.2,1.1,9.1,4.5,17.7,10.3,25.9Z"/>
  <path class="cls-1" d="M988.7,245.2h18c14.6,0,26.5-2,35.6-6,9.1-4,15.3-9.8,18.7-17.3,3.4-7.5,5.1-19.5,5.1-36v-22.4c0-16.1-.9-28-2.6-35.7-1.8-7.7-5.1-14.2-10-19.6-4.9-5.4-12.3-9.5-22.1-12.4-9.8-2.9-23.8-4.3-42.1-4.3h-67.5v257.6h67v-103.7ZM988.7,135.5c8.7,0,14.4,1.3,17.2,4,2.8,2.7,4.1,8.4,4.1,17.2v21.2c0,9.5-1.2,15.8-3.6,18.9-2.4,3-6.7,4.5-12.8,4.5s-3,0-4.9-.2v-65.5Z"/>
  <path class="cls-1" d="M1098.5,212.8c5.4,5,16.4,13,33.1,24,16.6,10.9,27.1,18.7,31.3,23.4,4.1,4.7,6.2,14.6,6.2,29.7s-1.1,12.1-3.3,15.6c-2.2,3.5-5.5,5.3-9.9,5.3s-7.6-1.4-9.3-4.1c-1.7-2.8-2.6-9-2.6-18.6v-31.3h-62.2v16.9c0,19.3,2,34.2,5.9,44.7,3.9,10.5,12.2,19.1,24.9,25.9,12.7,6.8,28,10.2,45.9,10.2s30.6-2.9,43-8.8c12.3-5.9,20.6-13.2,24.9-21.9,4.3-8.7,6.4-22.2,6.4-40.6s-3.9-43.5-11.6-54.9c-7.7-11.3-26.5-25.9-56.3-43.6-10.4-6.1-16.7-11.4-18.9-15.7-2.3-4.4-3.5-10.8-3.5-19.4s1-11.7,3.1-15,5.1-4.9,9.1-4.9,6.4,1.2,8,3.7c1.6,2.4,2.4,8.1,2.4,17v19.1h62.2v-10.2c0-20.5-2-35-6-43.5-4-8.5-12.1-15.6-24.3-21.2-12.2-5.6-27.1-8.4-44.5-8.4s-29.5,2.6-40.7,7.7c-11.2,5.1-19.4,12.3-24.4,21.4-5,9.1-7.6,23.5-7.6,43.3s1.8,24.9,5.3,33.7c3.6,8.8,8,15.7,13.4,20.7Z"/>
  <polygon class="cls-1" points="1281.9 349 1348.9 349 1348.9 143 1388.6 143 1388.6 91.4 1242.3 91.4 1242.3 143 1281.9 143 1281.9 349"/>
  <path class="cls-1" d="M1546,202.1c5-6.9,7.5-20.4,7.5-40.4s-3.5-37.9-10.6-48c-7.1-10-16.2-16.3-27.4-18.7-11.2-2.4-32.6-3.7-64.2-3.7h-47.4v257.6h67v-116.1c9.2,0,14.9,1.6,17.1,4.9,2.2,3.3,3.3,11.8,3.3,25.6v85.6h62.2v-67.9c0-20.8-.6-33.5-1.7-38.1-1.1-4.6-4-9.7-8.5-15.2-4.6-5.5-13.5-9.9-26.7-13.2,14.6-1.4,24.4-5.5,29.4-12.4ZM1491.2,169.5c0,11.3-1.5,18.1-4.5,20.1-3,2.1-8.3,3.1-15.8,3.1v-57.3c7.7,0,13.1,1.3,16,3.8,2.9,2.5,4.4,7.9,4.4,16.1v14.2Z"/>
  <polygon class="cls-1" points="1646.4 240.8 1688.2 240.8 1688.2 191.8 1646.4 191.8 1646.4 143 1691.1 143 1691.1 91.4 1579.4 91.4 1579.4 349 1695.5 349 1695.5 297.4 1646.4 297.4 1646.4 240.8"/>
  <polygon class="cls-1" points="1830.9 297.4 1781.7 297.4 1781.7 240.8 1823.6 240.8 1823.6 191.8 1781.7 191.8 1781.7 143 1826.4 143 1826.4 91.4 1714.8 91.4 1714.8 349 1830.9 349 1830.9 297.4"/>
  <polygon class="cls-1" points="1834.4 91.4 1834.4 143 1874 143 1874 349 1941 349 1941 143 1980.8 143 1980.8 91.4 1834.4 91.4"/>
  <path class="cls-1" d="M1207.7,417.7c-31.3,0-58.4,1.9-85.4-.6-19.1-1.8-31.1,12.4-43.1,31.4,21-3.9,41.7-4.9,66.7-1.9-39.6,44.4-76,85-112.3,125.6,22.5-1.6,44.3-2.3,60.9-27.1,6.4-9.5,12.5-10.5,19.2-.5,16.5,24.6,38.2,26.2,60.8,27-16.8-18.9-33.6-37.8-51.8-58.2,28.4-32,55.1-62,85.1-95.8Z"/>
  <path class="cls-1" d="M871.8,518.6c-.7-14.7,1.3-30.7-1.8-44-2.5-10.6-13.7,0-20.6-7.6,9.7-22.9,19.2-45.2,28.9-67.9h-135.8c15.1,10.8,19.3,35.2,34.1,28.9,19.9-8.6,39.5-2.2,64.4-4.6-17.5,27.9-22.1,56-23.1,86-.2,4.8-3.5,10.1,1.2,13.1,4,2.5,6.3-2.3,8.3-6.8,4.5-10.1,9.1-20.1,15.5-34.3,2.4,52.4,2.4,52.7,13.6,52.7,7.1,0,16.1,3.8,15.2-15.4Z"/>
  <path class="cls-1" d="M1199.8,461.8c-3,33.7-6.5,67.3-9.6,101-.8,8.2-2.8,19.4,6.9,17.7,7-1.3,18.1,8.4,19.9-10.4,4.5-48.9,7.9-98.1,11.8-147.2-11.8,11.3-26.8,15-28.9,39Z"/>
  <path class="cls-1" d="M810.7,437.4c-7.3,1.1-18-8.3-19.6,14.4-2.5,36.5-5.9,72.9-9.7,109.2-1.8,17.2,2.6,22.5,13.1,19.5,10.7,3.2,14.1-3.6,15-19.5,2-34.8,5.6-69.4,8.6-104.1.8-9.6,3.2-21-7.4-19.4Z"/>
  <path class="cls-1" d="M980.7,490.1c-23.4-6.1-40.6-2.7-55.7,17.8-6.8,9.3-15.2,15.9-22.9,23.7.2-16.4.5-32.9.7-49.3.2-15.9-7.9-12-13.5-11.8-5.5.2-13.8-5.2-13.9,11,0,21.8,0,43.6,0,65.8,8.3-1.7,12-11,18.4-9.2,0,0,0,0,0,0-6.5,16.1-20.8,19.5-27.7,37,47.9,1,76.2-50.4,114.7-85Z"/>
  <path class="cls-1" d="M1274.9,496.6c-10.8-3-21.3-8.1-32.1-10.6-5.1-1.1-14.1-14.6-15.1,6.6-.6,12.9-8.2,29.7,9.3,32.5,12.5,2,24.9,7.8,37.1,12.9,10.4,4.3,15.7,1.2,13-16.9,2.7-15.7-2.6-21.9-12.2-24.5Z"/>
  <path class="cls-1" d="M1302.2,413.8c-11.6,0-14.5,10.8-15.5,25,.2,4.3.4,8.6.5,12.9q.3,35.2,24,34.3c1.1,0,2.3-.2,3.4-.4,0-18.2-.2-36.5.4-54.7.5-14.8-4.7-17.1-12.8-17.2Z"/>
  <path class="cls-1" d="M1049.6,418.6s0,0,0,0h-125.7c14.8,19.4,23.7,36.6,44.7,28.1,20.1-8.1,42.6-2.9,64.1-3.5-.3,1.8-.5,3.6-.8,5.4,0,0,0,0,0,0-38.6,42.2-77.3,84.4-115.9,126.6,18.8-5,38.6-1.7,54.1-18.8,30.4-33.4,114-128.2,121.5-137.9-15.8,0-28.9,0-41.9,0Z"/>
  <g>
    <path class="cls-1" d="M1356.2,582.8l-.2-172.6c72.8,24.2,131.8,96.5,140,172.6h-139.8ZM1381.1,450.6l.2,106.9h83.7c-16.4-46.7-40.9-81.2-83.9-106.9Z"/>
    <path class="cls-1" d="M1586.2,586.2c-49.6,0-89.9-40.4-89.9-89.9s40.4-89.9,89.9-89.9,89.9,40.4,89.9,89.9-40.4,89.9-89.9,89.9ZM1586.2,432.2c-35.3,0-64.1,28.8-64.1,64.1s28.8,64.1,64.1,64.1,64.1-28.8,64.1-64.1-28.8-64.1-64.1-64.1Z"/>
    <path class="cls-1" d="M1679.7,409.7h140.5v25.6h-109.8c20.8,57.5,53.4,95.7,109.8,120.4v26.8c-73-23.9-132.3-96.5-140.5-172.9Z"/>
    <path class="cls-1" d="M1882.8,435.6c-8.2,0-17.7,4.4-17.7,13.8s11.6,12.1,19.3,12.1h74.5c3.9,0,18.9-1.2,18.9,4.8s0,3.1-.2,4.1c-15,55.9-81.5,106.4-138.1,112.4v-26.4c12.1,0,23.9-4.4,34.6-9.4,15-7.3,67.2-42.1,67.2-58.8s-1-2.2-1.7-2.7l-44.7.2c-26.1.2-55.4-3.4-55.4-36.8s17.9-39.2,38.7-39.2h102.5v25.6h-97.9Z"/>
  </g>
</svg>