<?xml version="1.0" encoding="UTF-8"?>
<svg id="Layer_1" data-name="Layer 1" xmlns="http://www.w3.org/2000/svg" version="1.1" viewBox="0 0 1981 672">
  <defs>
    <style>
      .cls-1 {
        fill: #000;
        stroke-width: 0px;
      }
    </style>
  </defs>
  <path class="cls-1" d="M453.8,216.4h-73.1c-38.1,38.1-75.3,75.2-112.3,112.1h43.5l33.2,33.2c-.8,14.4-.5,29.4-.6,44.6,1.7,0,2.1-1.1,2.7-1.7,35.9-35.8,71.8-71.8,107.7-107.6,1.7-1.7,2.3-3.4,2.3-5.7v-68.9c0-2.6-.7-4.6-3.4-6h0Z"/>
  <path class="cls-1" d="M311.6,359.3h-74.3c-33.2,33.1-66,65.8-99.1,98.8.3,14.4-.3,29.1-.5,43.1,11.8,11.8,23.1,23.1,34.8,34.8,14.2-.4,28.9-.8,43.2-.6,33.1-33.2,65.8-66,98.7-99v-74.4c-.8-1.2-1.6-2.1-2.7-2.6h-.1Z"/>
  <path class="cls-1" d="M59-.2L-.5,59.4v118.9l61,61h174.1L41.9,431.9v158.4l18.5,18.6,2.6,2.5,18.5,18.6h158.4l192.7-192.8v174.1l61,61h119l59.5-59.5V2.3l-2.6-2.5s-610.5,0-610.5,0ZM592.1,647.2h0c0,0-79.9,0-79.9,0-18.1-18.1-35.9-35.8-54-54-.6-57.5.4-115.4.4-173.7,4-3.8,8.2-7.7,12.3-11.5-6.9-6.8-13.6-13.3-19.9-19.7-73.4,73.2-146.8,146.6-219.7,219.5-44.3.6-87.8-.3-130.8-.2-11.7-11.7-22.9-23-34.5-34.5v-129.5c73.6-73.6,146.8-147,220-220.2l-19.9-19.9c-3.6,3.9-7.5,8.2-10.4,11.6H80.4c-17.7-17.8-35.4-35.4-53.5-53.6v-81l54.9-54.9h563.4c1.4.4,2,1.3,2.3,1.8,1.4,188.2,0,376.2.8,563.6-18.9,18.9-37.3,37.3-56.2,56.1v.2Z"/>
  <path class="cls-1" d="M587.4,105.9h0c0-4.5,0-8.9,0-13.3,0-2.7-.6-4.9-3.2-6.2H122c-10,10-19.8,19.8-30.1,30.1-.8,5.4-.4,11.5-.3,16.7,8.9,8.8,17.1,17.1,25.9,25.7,73.9-1.3,148.4,0,222.9.1,9.4,9.4,18.6,18.5,27.6,27.7,2.1,2.1,4.2,3,7.3,2.9h72.5c1.7,0,3.4-.2,4.6.6,10.3,10.3,20.7,20.7,31.5,31.5-.6,26.7.7,54,.5,81.8,10.2,10.2,20.4,20.3,30.5,30.4v222.8c8.5,8.5,16.9,16.8,25.6,25.5h15c1.3,0,2.6-.3,3.6-1.3,9.4-9.5,18.8-18.9,28.4-28.5v-4.2c0-22.5,0-45.1,0-67.6,0-66,0-132,0-198s0-117.9,0-176.9v.2Z"/>
  <path class="cls-1" d="M754.5,326.9c5.8,8.2,14.6,14.8,26.4,19.9,11.8,5.1,25.3,7.6,40.7,7.6s26-2.1,36.2-6.4,18.5-10.6,24.7-18.9c6.3-8.3,10-16.4,11.3-24.3s1.9-21.6,1.9-41.1V91.4h-67v189.8c0,12.8-.6,21-1.8,24.4s-4,5.2-8.2,5.2-6.2-1.6-7.4-4.7-1.8-10.3-1.8-21.6V91.4h-67v152.4c0,29.1.5,48.1,1.6,57.2s4.5,17.7,10.3,25.9h0Z"/>
  <path class="cls-1" d="M988.7,245.2h18c14.6,0,26.5-2,35.6-6,9.1-4,15.3-9.8,18.7-17.3,3.4-7.5,5.1-19.5,5.1-36v-22.4c0-16.1-.9-28-2.6-35.7-1.8-7.7-5.1-14.2-10-19.6s-12.3-9.5-22.1-12.4c-9.8-2.9-23.8-4.3-42.1-4.3h-67.5v257.6h67v-103.9ZM988.7,135.5c8.7,0,14.4,1.3,17.2,4s4.1,8.4,4.1,17.2v21.2c0,9.5-1.2,15.8-3.6,18.9-2.4,3-6.7,4.5-12.8,4.5s-3,0-4.9-.2v-65.5h0Z"/>
  <path class="cls-1" d="M1098.5,212.8c5.4,5,16.4,13,33.1,24,16.6,10.9,27.1,18.7,31.3,23.4,4.1,4.7,6.2,14.6,6.2,29.7s-1.1,12.1-3.3,15.6c-2.2,3.5-5.5,5.3-9.9,5.3s-7.6-1.4-9.3-4.1c-1.7-2.8-2.6-9-2.6-18.6v-31.3h-62.2v16.9c0,19.3,2,34.2,5.9,44.7s12.2,19.1,24.9,25.9c12.7,6.8,28,10.2,45.9,10.2s30.6-2.9,43-8.8c12.3-5.9,20.6-13.2,24.9-21.9,4.3-8.7,6.4-22.2,6.4-40.6s-3.9-43.5-11.6-54.9c-7.7-11.3-26.5-25.9-56.3-43.6-10.4-6.1-16.7-11.4-18.9-15.7-2.3-4.4-3.5-10.8-3.5-19.4s1-11.7,3.1-15,5.1-4.9,9.1-4.9,6.4,1.2,8,3.7c1.6,2.4,2.4,8.1,2.4,17v19.1h62.2v-10.2c0-20.5-2-35-6-43.5s-12.1-15.6-24.3-21.2c-12.2-5.6-27.1-8.4-44.5-8.4s-29.5,2.6-40.7,7.7-19.4,12.3-24.4,21.4-7.6,23.5-7.6,43.3,1.8,24.9,5.3,33.7c3.6,8.8,8,15.7,13.4,20.7v-.2Z"/>
  <polygon class="cls-1" points="1281.9 349 1348.9 349 1348.9 143 1388.6 143 1388.6 91.4 1242.3 91.4 1242.3 143 1281.9 143 1281.9 349"/>
  <path class="cls-1" d="M1546,202.1c5-6.9,7.5-20.4,7.5-40.4s-3.5-37.9-10.6-48c-7.1-10-16.2-16.3-27.4-18.7-11.2-2.4-32.6-3.7-64.2-3.7h-47.4v257.6h67v-116.1c9.2,0,14.9,1.6,17.1,4.9,2.2,3.3,3.3,11.8,3.3,25.6v85.6h62.2v-67.9c0-20.8-.6-33.5-1.7-38.1s-4-9.7-8.5-15.2c-4.6-5.5-13.5-9.9-26.7-13.2,14.6-1.4,24.4-5.5,29.4-12.4h0ZM1491.2,169.5c0,11.3-1.5,18.1-4.5,20.1-3,2.1-8.3,3.1-15.8,3.1v-57.3c7.7,0,13.1,1.3,16,3.8s4.4,7.9,4.4,16.1v14.2h0Z"/>
  <polygon class="cls-1" points="1646.4 240.8 1688.2 240.8 1688.2 191.8 1646.4 191.8 1646.4 143 1691.1 143 1691.1 91.4 1579.4 91.4 1579.4 349 1695.5 349 1695.5 297.4 1646.4 297.4 1646.4 240.8"/>
  <polygon class="cls-1" points="1830.9 297.4 1781.7 297.4 1781.7 240.8 1823.6 240.8 1823.6 191.8 1781.7 191.8 1781.7 143 1826.4 143 1826.4 91.4 1714.8 91.4 1714.8 349 1830.9 349 1830.9 297.4"/>
  <polygon class="cls-1" points="1834.4 91.4 1834.4 143 1874 143 1874 349 1941 349 1941 143 1980.8 143 1980.8 91.4 1834.4 91.4"/>
  <path class="cls-1" d="M1444.7,417.7c-47.2,0-88.2,1.9-128.9-.6-28.8-1.8-47,12.4-65.1,31.4,31.7-3.9,62.9-4.9,100.6-1.9-59.9,44.4-114.7,85-169.6,125.6,33.9-1.6,66.9-2.3,91.9-27.1,9.6-9.5,18.8-10.5,28.9-.5,24.8,24.6,57.7,26.2,91.8,27-25.4-18.9-50.7-37.8-78.2-58.2,42.9-32,83.2-62,128.4-95.8h.2Z"/>
  <path class="cls-1" d="M937.7,518.6c-1.1-14.7,1.9-30.7-2.7-44-3.7-10.6-20.7,0-31-7.6,14.7-22.9,29-45.2,43.7-67.9h-205c22.8,10.8,29.2,35.2,51.4,28.9,30.1-8.6,59.7-2.2,97.3-4.6-26.5,27.9-33.4,56-34.9,86-.2,4.8-5.2,10.1,1.9,13.1,6,2.5,9.5-2.3,12.5-6.8,6.8-10.1,13.7-20.1,23.4-34.3,3.6,52.4,3.6,52.7,20.5,52.7s24.3,3.8,23-15.4h-.1Z"/>
  <path class="cls-1" d="M1845,454.7c-1.4,26.9-12.4,97-12.1,105.6.2,7.5-10.8,21.1,7.8,20.1,11.4-.6,29.1,9.6,31.5-14.3,2.1-21.4,6.3-42.6,9.6-64,2.6-27,5.2-54,8.2-85.2-18.3,13.1-32.9,23.8-45,37.7h0Z"/>
  <path class="cls-1" d="M1432.9,461.8c-4.5,33.7-9.9,67.3-14.5,101-1.1,8.2-4.2,19.4,10.4,17.7,10.6-1.3,27.3,8.4,30-10.4,6.9-48.9,12-98.1,17.8-147.2-17.8,11.3-40.5,15-43.7,39h0Z"/>
  <path class="cls-1" d="M845.4,437.4c-11.1,1.1-27.2-8.3-29.6,14.4-3.8,36.5-9,72.9-14.6,109.2-2.7,17.2,4,22.5,19.7,19.5,16.1,3.2,21.2-3.6,22.6-19.5,3-34.8,8.4-69.4,13-104.1,1.3-9.6,4.8-21-11.2-19.4h0Z"/>
  <path class="cls-1" d="M1102.1,490.1c-35.3-6.1-61.3-2.7-84.1,17.8-10.3,9.3-23,15.9-34.6,23.7.4-16.4.8-32.9,1.1-49.3.3-15.9-11.9-12-20.5-11.8-8.2.2-20.8-5.2-20.9,11,0,21.8,0,43.6,0,65.8,12.6-1.7,18.2-11,27.8-9.2h0c-9.8,16.1-31.4,19.5-41.9,37,72.3,1,115.1-50.4,173.1-85h0Z"/>
  <path class="cls-1" d="M1673.5,423.7c-.4-10.7-10.4-10.3-18.2-9.7-7.9.6-21.7-4.2-21.4,7.8.6,33.9-8.5,68.5,4.9,101.8,3.4-2.3,32.8-17.6,33.9-29.7,2-23.3,1.7-46.9.9-70.3h-.1Z"/>
  <path class="cls-1" d="M1784.7,494.8c-23.8,6.5-46.5,4.9-69.5,5.1-24,.2-41.6,8.8-54.8,28.1,55.6,0,111.2,0,166.8-.2-11.3-15.4-26.3-37.4-42.6-32.9h0Z"/>
  <path class="cls-1" d="M1546.2,496.6c-16.3-3-32.2-8.1-48.5-10.6-7.7-1.1-21.3-14.6-22.8,6.6-.9,12.9-12.3,29.7,14.1,32.5,18.9,2,37.5,7.8,56,12.9,15.7,4.3,23.7,1.2,19.6-16.9,4.1-15.7-4-21.9-18.4-24.5h0Z"/>
  <path class="cls-1" d="M1929.8,489.8c-23.1-5.7-37.3,2.2-42.8,23.5,14.1,18.7,36.8,14.5,55.6,19.6,38.8,10.6,39.2,9.2,38.1-30.3-17-4.3-33.9-8.6-50.9-12.8h0Z"/>
  <path class="cls-1" d="M1587.4,413.8c-17.5,0-21.9,10.8-23.4,25,.2,4.3.7,8.6.7,12.9.3,23.5,12.4,34.9,36.3,34.3,1.7,0,3.4-.2,5.2-.4,0-18.2-.3-36.5.6-54.7.7-14.8-7.1-17.1-19.3-17.2h0Z"/>
  <path class="cls-1" d="M1206.1,418.6h-189.8c22.4,19.4,35.8,36.6,67.5,28.1,30.4-8.1,64.4-2.9,96.8-3.5-.4,1.8-.8,3.6-1.2,5.4h0c-58.3,42.2-116.7,84.4-175,126.6,28.4-5,58.3-1.7,81.7-18.8,45.9-33.4,172.1-128.2,183.4-137.9h-63.4Z"/>
</svg>