<?xml version="1.0" encoding="utf-8"?>
<!-- Generator: Adobe Illustrator 27.8.1, SVG Export Plug-In . SVG Version: 6.00 Build 0)  -->
<svg version="1.1" id="Layer_1" xmlns="http://www.w3.org/2000/svg" xmlns:xlink="http://www.w3.org/1999/xlink" x="0px" y="0px"
	 viewBox="0 0 800 800" style="enable-background:new 0 0 800 800;" xml:space="preserve">
<style type="text/css">
	.st0{fill-rule:evenodd;clip-rule:evenodd;}
</style>
<g>
	<path class="st0" d="M297.5,419.9l1.8,86.6l104.8-86.6l164,8.2l49.2-270.7L182.7,182L199,428.1L297.5,419.9z M445.1,272.2h49.2
		v49.2h-49.2V272.2z M363.1,272.2h49.2v49.2h-49.2V272.2z M281.1,272.2h49.2h0v49.2h-49.2V272.2z"/>
	<g>
		<polygon class="st0" points="754.5,282.2 640,295.7 604.1,493.4 410.3,464.2 267.4,574 260.2,487.4 158.6,495.1 145.7,302.2 
			57,294.9 7.2,629.7 62,693.1 714.6,710.8 791.9,644.9 		"/>
	</g>
	<polygon class="st0" points="599.2,147.7 604.1,121.1 201,143.3 202.8,169.5 	"/>
	<polygon class="st0" points="573.6,113.5 578,89.2 223.7,108.2 225.3,132.1 	"/>
</g>
</svg>
