<?xml version="1.0" encoding="utf-8"?>
<!-- Generator: Adobe Illustrator 28.3.0, SVG Export Plug-In . SVG Version: 6.00 Build 0)  -->
<svg version="1.1" id="Layer_1" xmlns="http://www.w3.org/2000/svg" xmlns:xlink="http://www.w3.org/1999/xlink" x="0px" y="0px"
	 viewBox="0 0 800 800" style="enable-background:new 0 0 800 800;" xml:space="preserve">
<style type="text/css">
	.st0{fill-rule:evenodd;clip-rule:evenodd;fill:#010101;}
</style>
<path class="st0" d="M721.7,524.8l-34.1,74.9l-68.2,62.6l-42.6-34.1l36.9-28.5l39.8-49.1l22.7-67.2l14.2-79.5l-17-88l-36.9-73.8
	l-56.8-56.8l34.1-42.6l56.8,51.1l39.8,65.3l47.4,102.2v79.5L721.7,524.8z M623.6,361.3l2.8,88l-36.9,79.5L544.1,574l-28.4-39.4
	l34.1-45.4l22.7-51.1l-11.4-99.4l-45.4-73.8l25.6-36.9l22.7,17l42.6,51.1L623.6,361.3z M237.1,554.7L50.6,528l-3.1-263.6l97.7-8.1
	l81.4-2.7L457.6,75.1l4.3,650L237.1,554.7z"/>
</svg>
