<?xml version="1.0" encoding="utf-8"?>
<!-- Generator: Adobe Illustrator 27.7.0, SVG Export Plug-In . SVG Version: 6.00 Build 0)  -->
<svg version="1.1" id="Layer_1" xmlns="http://www.w3.org/2000/svg" xmlns:xlink="http://www.w3.org/1999/xlink" x="0px" y="0px"
	 viewBox="0 0 800 800" style="enable-background:new 0 0 800 800;" xml:space="preserve">
<style type="text/css">
	.st0{fill-rule:evenodd;clip-rule:evenodd;fill:#010101;}
</style>
<g>
	<path class="st0" d="M462.9,45.3c0,0-40.8,31.4-46.7,29.1c-5.8-2.4-109.1,84.1-109.1,84.1l-96.5,81.8l-88.8,2.9L15.2,252l-5.6,46.7
		l6,112.2l3,128.8l106.9,9.1l96.7,20.1l93.5,66.4l109.8,77.2l42.1,42.3V562.9l-7-217.4L462.9,45.3z"/>
	<polygon class="st0" points="744,329.4 704.8,290.2 630.5,370.7 556.2,290.2 517,329.4 598.8,405 524.5,485.5 548.7,509.8 
		630.5,434.3 712.3,509.8 736.5,485.5 662.2,405 	"/>
</g>
</svg>
