<?xml version="1.0" encoding="utf-8"?>
<!-- Generator: Adobe Illustrator 27.8.1, SVG Export Plug-In . SVG Version: 6.00 Build 0)  -->
<svg version="1.1" id="Layer_1" xmlns="http://www.w3.org/2000/svg" xmlns:xlink="http://www.w3.org/1999/xlink" x="0px" y="0px"
	 viewBox="0 0 800 800" style="enable-background:new 0 0 800 800;" xml:space="preserve">
<style type="text/css">
	.st0{fill-rule:evenodd;clip-rule:evenodd;}
</style>
<path d="M728.3,0H71.7C32.2,0,0,32.2,0,71.7v656.6C0,767.8,32.2,800,71.7,800h656.6c39.5,0,71.7-32.2,71.7-71.7V71.7
	C800,32.2,767.8,0,728.3,0z M752.7,71.7l0,656.6c0,13.4-10.9,24.4-24.4,24.4H71.7c-13.4,0-24.4-10.9-24.4-24.4V71.7
	c0-13.4,10.9-24.4,24.4-24.4h656.6C741.7,47.3,752.7,58.3,752.7,71.7z"/>
<g>
	<g>
		<polygon points="101,101 101,163.8 123.2,163.8 123.2,123.2 163.8,123.2 163.8,101 		"/>
	</g>
</g>
<g>
	<g>
		<polygon points="636.2,101 636.2,123.2 676.8,123.2 676.8,163.8 699,163.8 699,101 		"/>
	</g>
</g>
<g>
	<g>
		<polygon points="123.2,676.8 123.2,636.2 101,636.2 101,699 163.8,699 163.8,676.8 		"/>
	</g>
</g>
<g>
	<g>
		<polygon points="676.8,636.2 676.8,676.8 636.2,676.8 636.2,699 699,699 699,636.2 		"/>
	</g>
</g>
<path class="st0" d="M636,428.1l-19.9-4L586.3,492l-29.1,1l29.6-74.8l-35.4-66.9L504.1,305l-45.3,35.7l-61,34.5l6.9-26.8l1.9-41.4
	l-93.1,44.3L255.1,427c0,0,34.1,78.5,32.5,79.7l-23.6,1l-31.5-64l-26.3,12.8l7.5-56.3L196,322.7l9.9-38.4l22.7-64l51.2-53.2l63-44.3
	l63.9-4l73.8,0.7l57.1,26.9l39.4,36.4l27.6,48.3l17.7,35.5l12.8,62.9l-4.3,56.1L636,428.1z M319,374.9l72.9-40.3l-17.7,70.1
	l96.4-48.2l36.4-22.9l26.5,29.6l29.6,53.2l-26.5,65l-19.7,38.4l-33.5,31.9l-50.2,29.3l-8.1,1.8l-19.5-4.9l-49.2-25.6L320,516.7
	l-26.5-53.2l-15.8-35.5L319,374.9z M324,595.4l-1-36.5l68.9,34.6l33.3,6.9l21.9-5.9l62-35.5l6.9,50.2l23.6,25.6l-114.4,47.3
	l-126.8-41.4l15.8-6.9L324,595.4z"/>
</svg>
