<?xml version="1.0" encoding="UTF-8"?>
<svg id="Layer_1" data-name="Layer 1" xmlns="http://www.w3.org/2000/svg" version="1.1" viewBox="0 0 800 800">
  <defs>
    <style>
      .cls-1 {
        fill: #010101;
        fill-rule: evenodd;
        stroke-width: 0px;
      }
    </style>
  </defs>
  <path class="cls-1" d="M719.1,656.9l-52.2,13.9-42.9-69.1,11.7-19.3-70.8-187.6-17.4,110.5,11.6,48.8,68.5,105.3-118.2,64.2-92.5-102.6,46.9-197.4,17.4-63.6,36.5-153.8-54.4-6.2,23.4-77.6-163.1-13.9.8-8,42.9-18.5,103.5-5.9,45.2,30.8,1.2,55.2,91.8,37.3,55.7,177.3,59.1,164.4,20.9-3.9,15.4,83.5-40.9,36ZM318.5,157.2l2.6-24.7,135.7,10-30,77.6,58.9,7.7-32.3,138.8-66.7,256.4-102.4,96.9-84.2-49.1,58.1-112.8,11.6-42.4-10.5-116.9-98.6,168.3,16.2,27-48.7,65.5-53.5-21.8-34.6-41.1,21.9-78.4,22,2.6,77.8-158.8,66.2-179,90.6-25.7Z"/>
</svg>