<?xml version="1.0" encoding="UTF-8"?>
<svg id="Layer_1" data-name="Layer 1" xmlns="http://www.w3.org/2000/svg" version="1.1" viewBox="0 0 800 800">
  <defs>
    <style>
      .cls-1 {
        fill: #000;
        stroke-width: 0px;
      }
    </style>
  </defs>
  <path class="cls-1" d="M304.2,294.9s-131.3,129.3-132.1,130.3c-.8.8,18.6,111.6,18.6,111.6l80,67,100.4,9.3,135.8-173.1-9.3-35.4L760,80.9l-189.7-40.9-228.8,254.9h-37.2ZM406.5,460.5l-44.7,61.4-59-4.8-32.2-26.1-12.9-56.5,50.2-53.9,78.1,9.3,20.5,70.7Z"/>
  <polygon class="cls-1" points="213.1 601.9 187 579.5 175.8 570.3 40 698.6 120 760 226 616.8 213.1 601.9"/>
  <polygon class="cls-1" points="648.2 648.4 264.2 667.5 222.4 720.3 714.9 705.8 734.2 218.8 672.9 295.6 648.2 648.4"/>
  <polygon class="cls-1" points="126 555.2 121.6 134.9 399.4 139.5 443.7 85.1 65.8 80.9 78 598.8 126 555.2"/>
</svg>