<?xml version="1.0" encoding="UTF-8"?>
<svg id="Layer_1" data-name="Layer 1" xmlns="http://www.w3.org/2000/svg" version="1.1" viewBox="0 0 800 800">
  <defs>
    <style>
      .cls-1 {
        fill: #000;
        fill-rule: evenodd;
        stroke-width: 0px;
      }
    </style>
  </defs>
  <polygon class="cls-1" points="275.8 69.6 40 67 56.1 754.9 58.8 754.6 99.7 566.2 99.7 124.7 252.3 127.2 275.8 69.6"/>
  <polygon class="cls-1" points="492 72 508.8 131.4 700.3 134.6 684.4 423 702.3 685.5 704.9 736 733.9 735 760 74.9 492 72"/>
  <polygon class="cls-1" points="629.7 451.1 603.3 381.8 611.4 334.3 578.1 289.8 515.8 280 458.2 264.6 438.6 240.5 434.3 227.5 434.5 227.3 457.6 177.6 460 120.7 433.5 60.8 385.8 45.1 329.9 63.5 306.4 108.5 300.3 162.7 313.1 220.6 325.5 237.8 310.9 279.8 271.2 283.1 226.1 295.2 198.8 335.6 196 369.4 184.1 435.2 131 562.6 102.5 707.1 118.7 746.4 149.2 753.1 180.3 714.5 162.7 686.6 162 663.9 174.1 620.1 222.4 559 234.8 480.4 247.3 451.9 262.1 508 262.5 598.9 245.7 650.4 231.6 717 231.6 743.5 536.9 735.2 528.4 697.6 487.8 600.6 495 512 531.2 449.9 570.6 510.1 564.2 553.1 610.4 654.1 567.8 691.2 561 719.7 611.1 754.3 660.9 703.9 663.7 667.8 653.2 480.8 629.7 451.1"/>
</svg>