<?xml version="1.0" encoding="UTF-8"?>
<svg id="Layer_1" data-name="Layer 1" xmlns="http://www.w3.org/2000/svg" version="1.1" viewBox="0 0 800 800">
  <defs>
    <style>
      .cls-1 {
        fill: #000;
        fill-rule: evenodd;
        stroke-width: 0px;
      }
    </style>
  </defs>
  <polygon class="cls-1" points="223.3 352.6 195.3 469 238.5 569 239.6 569.1 195.8 629 202 651.6 326.6 597.9 385.9 617.5 446.4 600.6 564.6 651.2 584.2 629 551.9 570.7 593.4 469 557.5 341 518.9 342.3 456.6 504.5 422 414.7 373.9 552.6 338.5 349.6 223.3 352.6"/>
  <polygon class="cls-1" points="292.5 239.3 198 40 112 75.5 239.2 236.6 292.5 239.3"/>
  <polygon class="cls-1" points="422.3 316.2 457 439.7 521 245.5 348.2 225.2 378.9 474.4 422.3 316.2"/>
  <polygon class="cls-1" points="190 261 195.3 329.4 334.5 325.9 324 265 190 261"/>
  <polygon class="cls-1" points="583.7 272.6 546.2 271.5 527.1 321 578.8 320 583.7 272.6"/>
  <polygon class="cls-1" points="284.8 97.7 305.1 154.1 690 160.5 653.4 681.5 115.2 708.3 109.6 172.3 52.3 119.2 67.4 760 722.4 740.8 747.7 102.8 284.8 97.7"/>
</svg>