<?xml version="1.0" encoding="UTF-8"?>
<svg id="Layer_1" data-name="Layer 1" xmlns="http://www.w3.org/2000/svg" version="1.1" viewBox="0 0 800 800">
  <defs>
    <style>
      .cls-1 {
        fill: #000;
        stroke-width: 0px;
      }
    </style>
  </defs>
  <polygon class="cls-1" points="124.4 427 87.7 464.8 167.9 655.1 385.7 710.2 404.1 659.8 241.3 591.9 124.4 427"/>
  <polygon class="cls-1" points="323.8 304.4 454.6 367.9 511.8 483.2 546.3 492.4 580.6 435.1 521 403 511.8 343.4 447.7 270 408.7 219.5 468.3 258.5 493.5 235.7 424.7 132.5 328.5 192 323.8 304.4"/>
  <polygon class="cls-1" points="495.8 279.2 548.5 327.3 550.8 386.9 626.5 423.6 704.4 329.6 660.9 291.6 656.3 210.4 603.5 185.7 534.8 79.9 452.2 118.7 534.8 247.1 495.8 279.2"/>
  <polygon class="cls-1" points="420.2 389.3 314.7 334.2 170.3 428.2 259.7 563.4 408.7 623.1 472.9 492.4 420.2 389.3"/>
  <polygon class="cls-1" points="662.5 662.6 466.4 672.5 452.8 732.8 733.9 724.1 746.6 402.6 676.7 463.7 662.5 662.6"/>
  <polygon class="cls-1" points="605.8 62.3 637.8 122.6 700.3 123.7 693.2 225.7 751.9 267.2 760 64 605.8 62.3"/>
  <polygon class="cls-1" points="126.8 689.4 105.6 690.5 105.3 655.2 53.5 570.8 56.1 744 244.6 740.1 127.5 690.5 126.8 689.4"/>
  <polygon class="cls-1" points="99.7 113.7 315.4 117.3 416.4 61.9 40 56 48.2 396.1 102.2 351.2 99.7 113.7"/>
</svg>