<?xml version="1.0" encoding="UTF-8"?>
<svg id="Layer_1" data-name="Layer 1" xmlns="http://www.w3.org/2000/svg" version="1.1" viewBox="0 0 800 800">
  <defs>
    <style>
      .cls-1 {
        fill: #000;
        stroke-width: 0px;
      }
    </style>
  </defs>
  <polygon class="cls-1" points="53.9 147.6 51.9 175.4 197.9 241.8 255.3 186.6 190.6 40 151.7 43.4 179.3 100.6 133.8 41.9 97 60.9 128.8 105.7 82.1 66.9 49.3 128.5 125.2 165.8 53.9 147.6"/>
  <polygon class="cls-1" points="216.4 266.6 284.6 362.2 370.8 279 278.8 202.2 216.4 266.6"/>
  <polygon class="cls-1" points="382.1 309.5 313.8 373.8 651.2 760 750.7 660.5 382.1 309.5"/>
  <polygon class="cls-1" points="108.4 683 104.5 302.2 49.3 281.9 59.9 735.4 496.8 722.6 448.9 666.1 108.4 683"/>
  <polygon class="cls-1" points="691.6 127.2 665 506.6 731.5 559.3 750.1 68.7 271.6 63.5 287.4 120.5 691.6 127.2"/>
</svg>