<?xml version="1.0" encoding="UTF-8"?>
<svg id="Layer_1" data-name="Layer 1" xmlns="http://www.w3.org/2000/svg" version="1.1" viewBox="0 0 800 800">
  <defs>
    <style>
      .cls-1 {
        fill: #000;
        stroke-width: 0px;
      }
    </style>
  </defs>
  <polygon class="cls-1" points="557.4 484.4 308.5 229.9 297.5 119.3 170.3 50.2 106.6 77.8 200.7 133.1 203.4 192.5 148.1 214.8 54.1 163.5 59.6 221.6 139.8 301.8 225.6 304.6 488.3 564.6 496.6 697.3 623.8 749.8 693 722.2 598.9 672.4 596.2 608.8 651.5 583.9 745.5 640.7 745.5 583.9 651.5 489.9 557.4 484.4"/>
  <polygon class="cls-1" points="699.7 119.3 677.6 435.3 743.2 481.9 760 58.9 323.3 54.2 377.9 114 699.7 119.3"/>
  <polygon class="cls-1" points="98.9 691.8 95.5 351.7 40 313.2 49 745.8 470.3 733.5 407.8 676.4 98.9 691.8"/>
</svg>