<?xml version="1.0" encoding="UTF-8"?>
<svg id="Layer_1" data-name="Layer 1" xmlns="http://www.w3.org/2000/svg" version="1.1" viewBox="0 0 800 800">
  <defs>
    <style>
      .cls-1 {
        fill: #010101;
        fill-rule: evenodd;
        stroke-width: 0px;
      }
    </style>
  </defs>
  <path class="cls-1" d="M708.1,430.9l-2.5,306.5-101.5,5,9.9-311.5-54.4,2.5v-185.5l59.4,2.5-2.4-192.8h89v192.8l54.4-2.5v185.5l-51.9-2.5ZM445.8,742.4h-89.1l2.5-94-54.6,10.2v-193.1l49.7,2.5-10-410.4,101.5,5,10.5,405.4,44-2.5v193.2l-54.4-10.2v93.9ZM186,737.4l-101.5,5,9.9-410.4-54.4,2.5v-185.4l59.4,2.5-2.5-94h89.1v94l54.4-2.5v185.4l-51.9-2.5-2.5,405.4Z"/>
</svg>