<?xml version="1.0" encoding="UTF-8"?>
<svg id="Layer_1" data-name="Layer 1" xmlns="http://www.w3.org/2000/svg" version="1.1" viewBox="0 0 800 800">
  <defs>
    <style>
      .cls-1 {
        fill: #000;
        stroke-width: 0px;
      }
    </style>
  </defs>
  <g id="Layer_2" data-name="Layer 2">
    <g>
      <polygon class="cls-1" points="149.6 547.5 149.6 547.5 137.9 182.2 676.3 182.2 676.3 326.8 727.1 360.4 734.9 130.4 75.3 130.4 97.2 573 40 573 73.4 650.5 444.1 651.6 396.7 547.5 149.6 547.5"/>
      <path class="cls-1" d="M760,530l-9.5-53.8-29.7,11.5c-5.3-14.3-13-28.2-23.2-41l24-16.2-38.7-38.6-16.7,25c-13.2-9.3-27.3-16.2-41.8-20.6l12.9-33.4-53.8-9.5.7,37.2c-16.7.4-32.9,4.2-47.4,11.5l-8.8-18.5-53.7,53.8,18.5,8.8c-7.3,14.5-11.1,30.7-11.5,47.4l-37.2-.7,9.5,53.8,33.4-12.9c4.4,14.5,11.2,28.6,20.6,41.8l-25,16.7,38.6,38.7,16.2-24c12.8,10.2,26.6,17.9,41,23.2l-11.5,29.7,53.8,9.5-.6-30.9c21.4.6,42.3-4.3,60.2-15.1l-121.6-113.7,41.8-41.8,113.6,121.5c10.8-17.8,15.7-38.7,15.1-60.2l30.9.6Z"/>
    </g>
  </g>
</svg>