<?xml version="1.0" encoding="UTF-8"?>
<svg id="Layer_1" data-name="Layer 1" xmlns="http://www.w3.org/2000/svg" version="1.1" viewBox="0 0 800 800">
  <defs>
    <style>
      .cls-1 {
        fill: #000;
        stroke-width: 0px;
      }
    </style>
  </defs>
  <polygon class="cls-1" points="442.7 541.6 446 247.1 504.3 176 470.3 61.2 416.8 40 439.6 127.5 406.4 163.7 361 144.4 336 59.5 305.3 96.7 305.3 190.4 353.8 242.3 355.4 548.1 282.6 630.5 326.3 735.6 382.9 760 357 675.8 392.6 637 439.6 654.8 461.3 743 494.5 709.8 494.5 599.8 442.7 541.6"/>
  <g>
    <path class="cls-1" d="M80.3,428.6l169.7,112.3v-80l-97.2-60.9,97.2-60.3v-80.7c-56.6,37.4-113.1,74.9-169.7,112.3v57.2h0Z"/>
    <path class="cls-1" d="M719.7,428.6l-169.7,112.3v-80l97.2-60.9-97.2-60.3v-80.7c56.6,37.4,113.1,74.9,169.7,112.3v57.2Z"/>
  </g>
</svg>