<?xml version="1.0" encoding="UTF-8"?>
<svg id="Layer_1" data-name="Layer 1" xmlns="http://www.w3.org/2000/svg" version="1.1" viewBox="0 0 800 800">
  <defs>
    <style>
      .cls-1 {
        fill: #010101;
        fill-rule: evenodd;
        stroke-width: 0px;
      }
    </style>
  </defs>
  <path class="cls-1" d="M560,467.9l26.3,13.3,13.8,77.1,89.8,76.3,14.8,30.2-.9,32.5-48.7,62.7-178.5-39.5-78.8-106.9-65-78.6-106.5-53.8,38.3-116.1,57.3-22.6,159.1-252.6,278.9,135.7-200,242.1ZM155.8,101.8l56.7-61.8,153,112.1-36,53.5-173.7-103.8ZM259.9,317.9l-175.8-52.5,25.9-91.3,175.7,78.6-25.8,65.2ZM196.9,439.6l-156.9-21.2,14.8-82.8,163,36.1-20.9,68Z"/>
</svg>