<?xml version="1.0" encoding="UTF-8"?>
<svg id="Layer_1" data-name="Layer 1" xmlns="http://www.w3.org/2000/svg" version="1.1" viewBox="0 0 800 800">
  <defs>
    <style>
      .cls-1 {
        fill: #010101;
        fill-rule: evenodd;
        stroke-width: 0px;
      }
    </style>
  </defs>
  <path class="cls-1" d="M759.5,209.6l-81.3,375.3c-2.5,11.5-13.9,18.8-25.6,16.4l-138.7-29.4V248.9c0-11.8-9.6-21.3-21.5-21.3h-28.8c4.6-7.9,7.3-16.9,7.3-26.7,0-29.4-24.1-53.3-53.9-53.3s-37.9,23.9-37.9,53.3-13.3,18.8-8.7,26.7h-55.4l23.3-107.4c2.5-11.5,13.9-18.8,33.4-16.4l371.3,80.5c11.6,2.5,19,21.7,16.6,25.3ZM551.6,494.1c0,29.4,24.1,53.3,56.4,53.3s51.3-23.9,51.3-53.3-24.1-53.3-51.3-53.3-56.4,23.9-56.4,53.3ZM659.3,200.9c-29.8,0-51.3,23.9-51.3,53.3s21.6,53.3,51.3,53.3,53.9-23.9,53.9-53.3-24.1-53.3-53.9-53.3ZM470.8,291.6v383.8c0,11.8-9.6,21.3-21.5,21.3H73.7c-24.1,0-33.7-9.5-33.7-21.3v-383.8c0-11.8,9.6-21.3,33.7-21.3h375.6c11.9,0,21.5,9.5,21.5,21.3ZM131.5,312.9c-18.5,0-53.9,23.9-53.9,53.3s35.4,53.3,53.9,53.3c47.7,0,53.9-23.9,53.9-53.3s-6.1-53.3-53.9-53.3ZM255.4,435.5c-29.7,0-45.8,23.9-45.8,53.3,0,41.7,16.1,53.3,45.8,53.3s53.9-11.6,53.9-53.3-24.1-53.3-53.9-53.3ZM379.3,569.2c-29.8,0-53.9,12.7-53.9,42.2s24.1,53.3,53.9,53.3,53.9-23.9,53.9-53.3-24.1-42.2-53.9-42.2Z"/>
</svg>