<?xml version="1.0" encoding="UTF-8"?>
<svg id="Layer_1" data-name="Layer 1" xmlns="http://www.w3.org/2000/svg" version="1.1" viewBox="0 0 800 800">
  <defs>
    <style>
      .cls-1 {
        fill: #010101;
        fill-rule: evenodd;
        stroke-width: 0px;
      }
    </style>
  </defs>
  <path class="cls-1" d="M709.6,571.3h-31c-8.3,10.5-26,26.5-39.1,31.5v-1.3c7.8-20,36.3-126.7,32.7-142.2-15.8-69.2-55.5-170.5-86.9-246.7h-1.3c-3.8,31.1-12,78.2-29,102h-1.3c-6.9-65-16.8-130-25.2-190.6-.5-3.7-.8-2.9-1.3-2-11.3,26-22.7,52.1-34,78.1-15.2,32.7-39.2,60.1-60.4,89.4-8.2,7.8-16.6,21.9-29,27.7,7.2-48.8,14.3-104.8,21.4-157.4-.5.8-.8,1.7-1.3,2.5-10.1,14.7-20.1,29.3-30.3,44.1-28.8,40.9-80.5,118.8-118.5,147.2h-1.3c2-37.5,2.5-82,2.5-123.3-.5-13.9-.8-27.7-1.3-41.6-.5.8-.8,1.7-1.3,2.5-32.4,61.3-64.7,122.5-91.1,183.8-20.2,29-34.5,67-48.7,86.8,2.1,10.5,4.2,21,6.3,31.5,9.6,41.3,22.3,77.9,30.3,115.8h-1.3c-.8-.8-1.7-1.7-2.5-2.5-14.7-11.8-29.4-23.5-44.1-35.2h-22.7c-.5-30.6-.8-61.3,5.7-91.9-22.1,7.2-37.2,14.3-51.3,21.4-1.6-54-8.7-120.7,1.6-170C90,167.8,201.7,55.4,350.8,42.6c45.5-3.9,104.3-4.4,143.9,6.3,42.3,11.5,80.6,27.9,112.1,50.3,79.3,52.2,122,134.1,141.1,240.4.5,53.7.8,107.4,1.3,161.1-15.5-7.2-31.1-14.3-39.5-21.4,0,30.6,0,61.3,0,91.9ZM506,244c7.7,8.3,12.8,72.7,13.9,89.4-1.7.5-3.4.8-5.1,1.3-32.7-9-66.6,17.4-79.4,37.8,4.2,8.7,9,18.6,13.9,13.9,7.7-7.5,43.4-33.4,76.9-15.1.5.3-1.2,9.9,1.3,15.1,5.8-3.2,11.9-7.5,13.9-6.3,10.3,7,25.6,13.8,21.4,21.4,13.2-22.3,6.6-23.4-2.5-40.3,13.7-8.6,17.9-25.3,29-36.5h4.9c17,39.5,19.9,78.9,31.6,118.3,5.5,30.4-10.9,71.2-17.7,95.6-9.6,34.4-14.8,72-31.5,100.7-14.7,25.4-138,110.5-171.3,120.7-20.4.4-69.8-38.4-80.8-38.3-28-28-53.5-46.4-79.2-64.8-27.7-32.1-37.7-84.4-50.4-130.9-5.4-20.4-10.9-52.9-16.4-79.3,20-39.5,40.2-79,60.3-118.5h2.5v1.3c-.4,10-.8,20.1-1.3,30.3-2.1,3.9-11.5,10.3-12.8,18.9,2.9,13.2,4.3,21.9,7.7,25,6.3-8.3,2.1-.7,3.8,12.8,28.1-14.3,49-33.4,66.8-49.1,33.9,4.4,29.2,13.9,45.3,18.9,2.1-1.7,4.2-3.4,6.3-5.1-.8,7.2,1.4,14.3-2.5,21.4,59.5-33.7,119.8-97.2,151.2-158.7ZM375.7,296.9c-3.5,5.4-13.8,58.8-15.8,70.4-18.8-22.2-27.3-21-29-14.5.8,0,1.7-11.9,6.3-11.9,12.7-14.7,25.6-29.4,38.4-44.1ZM291.8,416.5c-24.4,8.9-31.6,20.2-41.6,46.5,24.1,60,103.9,38.6,86.9-15.1-5.1-.8-10.1-1.7-12.8-2.5-6.9-9.8-3.4-15.9,0-22.6-11.6-3.8-17.7-6.5-32.6-6.3ZM488.4,416.5c-29.9,9-43.9,57-13.9,75.5,39,24.1,62.4-3.1,73.1-29-9.5-26.4-23.3-47.6-59.2-46.5ZM432.9,561.2c-27.4,23-55.9-1.9-78.1,6.3v14.3c18.5,21.3,80.6,18.9,94.5-8-1-2.9-3-8.1-6.3-12.6-3.3,0-6.6,0-10,0ZM393.9,625.4c-8.4,4-19.2,8.9-23.9,16.4-19.8,31.1-4.8,90.5,39.1,80.6,44.3-.3,48.1-102.5-15.2-96.9Z"/>
</svg>