<?xml version="1.0" encoding="UTF-8"?>
<svg id="Layer_1" data-name="Layer 1" xmlns="http://www.w3.org/2000/svg" version="1.1" viewBox="0 0 800 800">
  <defs>
    <style>
      .cls-1 {
        fill: #000;
        fill-rule: evenodd;
        stroke-width: 0px;
      }
    </style>
  </defs>
  <path class="cls-1" d="M40,135l27.1,407.6,163-13.6-13.6,176.6,190.2-176.6,271.7,13.6,81.5-448.3L40,135ZM425.5,428.8h-51.2v-51.2h51.2v51.2ZM447.6,295.3l-4.2,1.8c-9.2,4.1-14.5,8.1-15.9,12-1.4,3.9-2,9.5-2,16.9v25.7h-51.2v-25.7c0-21.2,11.2-38.5,33.5-52l4-2.4c9.2-5.5,13.8-13.1,13.8-22.6s-2.5-12.9-7.5-17.9c-5-5.1-11-7.6-18-7.6h-25.7c-15.8,0-24.4,8.5-25.7,25.5h-25.5c3.9-34.1,21-51.2,51.2-51.2h51.2c14,0,26.1,5,36.2,15.1,10.2,10,15.2,22.1,15.2,36.1-.1,22.2-9.9,37.7-29.4,46.3Z"/>
</svg>