<?xml version="1.0" encoding="utf-8"?>
<!-- Generator: Adobe Illustrator 28.3.0, SVG Export Plug-In . SVG Version: 6.00 Build 0)  -->
<svg version="1.1" id="Layer_1" xmlns="http://www.w3.org/2000/svg" xmlns:xlink="http://www.w3.org/1999/xlink" x="0px" y="0px"
	 viewBox="0 0 800 800" style="enable-background:new 0 0 800 800;" xml:space="preserve">
<style type="text/css">
	.st0{fill-rule:evenodd;clip-rule:evenodd;fill:#010101;}
</style>
<path class="st0" d="M653.5,431.8l-23-4.6l-34.3,78.4l-33.6,1.2l34.1-86.4l-40.8-77.2l-54.5-53.4L449.3,331L379,370.8l8-30.9
	l2.2-47.7L282,343.3l-67.4,87.4c0,0,39.3,90.6,37.5,92l-27.2,1.2L188.5,450l-30.3,14.8l8.6-65l-20.4-89.5l11.4-44.3l26.1-73.8
	l59-61.4l72.6-51.1l73.6-4.6l85.1,0.8l65.8,31.1l45.3,42l31.7,55.7l20.4,40.9l14.8,72.6l-5,64.8L653.5,431.8z M288.3,370.4l84-46.5
	l-20.4,80.9l111.1-55.6l41.9-26.4l30.6,34.1l34.1,61.4l-30.6,75l-22.7,44.3l-38.5,36.8l-57.9,33.8l-9.3,2.1l-22.5-5.6L331.4,575
	l-41.9-40.9l-30.6-61.4l-18.2-40.9L288.3,370.4z M294,624.9l-1.2-42.2l79.4,39.9l38.4,8l25.2-6.8l71.5-40.9l8,58l27.2,29.6
	L410.6,725l-146.1-47.7l18.2-8L294,624.9z"/>
</svg>
