<svg width="20" height="26" viewBox="0 0 20 26" fill="none" xmlns="http://www.w3.org/2000/svg">
<g id="icon_credits">
<path id="icon_credits_2" fill-rule="evenodd" clip-rule="evenodd" d="M14.8179 10.1356C13.8313 8.45142 12.0078 7.31704 9.91525 7.31704C6.77659 7.31704 4.23229 9.86134 4.23229 13C4.23229 16.1387 6.77659 18.683 9.91525 18.683C12.0078 18.683 13.8313 17.5486 14.8179 15.8644H19.4034C18.6808 18.2512 17.0841 20.2572 14.9831 21.5109V26H11.0169V22.8507C10.6548 22.8906 10.288 22.9153 9.91525 22.9153C9.5425 22.9153 9.1757 22.8906 8.81356 22.8507V26H4.84746V21.5109C1.94824 19.7808 0 16.6218 0 13C0 9.3782 1.94824 6.21916 4.84746 4.48914V0H8.81356V3.14928C9.1757 3.10937 9.5425 3.08475 9.91525 3.08475C10.288 3.08475 10.6548 3.10937 11.0169 3.14928V0H14.9831V4.48914C17.0841 5.74282 18.6808 7.7488 19.4034 10.1356H14.8179Z" fill="white"/>
</g>
</svg>
