<?xml version="1.0" encoding="utf-8"?>
<!-- Generator: Adobe Illustrator 28.3.0, SVG Export Plug-In . SVG Version: 6.00 Build 0)  -->
<svg version="1.1" id="Layer_1" xmlns="http://www.w3.org/2000/svg" xmlns:xlink="http://www.w3.org/1999/xlink" x="0px" y="0px"
	 viewBox="0 0 800 800" style="enable-background:new 0 0 800 800;" xml:space="preserve">
<style type="text/css">
	.st0{fill-rule:evenodd;clip-rule:evenodd;}
</style>
<g>
	<path class="st0" d="M84.4,661V517l462,34v-76l169.2,128L546.4,725v-78L84.4,661z"/>
	<polygon class="st0" points="208,493.5 201.7,488.4 254.2,425.4 279.7,498.8 492.8,514.5 513.9,449.2 513.9,409.7 653.2,515 
		672.4,500.9 615.1,401.8 539.6,297.4 436.3,271.1 434.6,251.4 454.8,223.4 478.9,141.4 456.8,98.8 414.7,77.8 370.2,75 331.3,93.8 
		305.1,139.8 323.8,221.5 342.8,249.8 337.9,271.1 234.5,299 164,395.9 122.6,487.2 	"/>
</g>
</svg>
