<?xml version="1.0" encoding="utf-8"?>
<!-- Generator: Adobe Illustrator 28.3.0, SVG Export Plug-In . SVG Version: 6.00 Build 0)  -->
<svg version="1.1" id="Layer_1" xmlns="http://www.w3.org/2000/svg" xmlns:xlink="http://www.w3.org/1999/xlink" x="0px" y="0px"
	 viewBox="0 0 800 800" style="enable-background:new 0 0 800 800;" xml:space="preserve">
<style type="text/css">
	.st0{fill-rule:evenodd;clip-rule:evenodd;}
</style>
<path class="st0" d="M538.8,451.6l7.1-32v-63V302l25.1-21l25.1,16.8V428l-18.3,62.7L538.8,451.6z M302.9,142.5l29.3-46.2L403,74.9
	l67.5,25.6l25.1,42v269.6L302.9,218.9V142.5z M626.2,713.5l-496-497l49.6-49.7l496,497L626.2,713.5z M256.8,428l21,54.6l37.7,37.8
	l62.9,21h5l52.1,55.9l-11-1.4v75.6h88.8l3.3,10.9v43.7H281.9v-54.6h92.2v-75.6l-75.4-25.2L235.8,512l-33.5-79.8v-64.7l54.5,54.6V428
	z"/>
</svg>
