<?xml version="1.0" encoding="UTF-8"?>
<svg xmlns="http://www.w3.org/2000/svg" version="1.1" viewBox="0 0 800 800">
  <defs>
    <style>
      .cls-1 {
        fill-rule: evenodd;
      }
    </style>
  </defs>
  <!-- Generator: Adobe Illustrator 28.7.1, SVG Export Plug-In . SVG Version: 1.2.0 Build 142)  -->
  <g>
    <g id="Layer_1">
      <g>
        <path d="M268.6,535.3l56.1,28.1,21.8,6.2h9.4l56.1-34.3,37.4-37.4,21.8-43.6,31.2-74.8-34.3-59.2-31.2-34.3-40.5,24.9-109.1,56.1,18.7-81-84.2,46.8-46.8,59.2,18.7,40.5,31.2,59.2,40.5,40.5,3.1,3.1h.1Z"/>
        <path d="M418.2,653.8v-93.5l-46.8,24.9-24.9,6.2-37.4-9.4-77.9-40.5v40.5l-9.4,43.6-18.7,9.4,143.4,46.8,71.7-28.1h0Z"/>
        <path class="cls-1" d="M658.8,571.5c-11.7-20-33.4-33.5-58.2-33.5-37.3,0-67.5,30.2-67.5,67.5s30.2,67.5,67.5,67.5,46.5-13.5,58.2-33.5h54.4c-8.6,28.3-27.5,52.1-52.5,67v53.3h-47.1v-37.4c-4.3.5-8.7.8-13.1.8s-8.8-.3-13.1-.8v37.4h-47.1v-53.3c-34.4-20.5-57.5-58-57.5-101s23.1-80.5,57.5-101v-53.3h47.1v37.4c4.3-.5,8.7-.8,13.1-.8s8.8.3,13.1.8v-37.4h47.1v53.3c24.9,14.9,43.9,38.7,52.5,67h-54.4Z"/>
        <g>
          <path d="M586.5,385.9h0c0,.2,0,.2,0,0Z"/>
          <polygon points="218.7 304.9 218.9 304.6 218.7 304.7 218.7 304.9"/>
          <path d="M489.9,304.8l40.5,74.8-20.5,50.4h35.4l19.4-44.1h21.7c-.7-2.7-6.1-43.6-6.1-43.6l6.2-62.3-15.6-71.7-18.7-40.5-31.2-56.1-43.6-40.5-65.5-31.2h-84.2l-71.7,3.1-71.7,49.9-59.2,59.2-24.9,71.7-12.5,43.6,18.7,87.3-9.4,65.5,31.2-15.6,37.4,71.7h28.1l-37.4-90.4,65.5-87.3-3,5.9,105.9-49.8v46.8l-9.4,31.2,68.6-40.5,53-40.5,53,53Z"/>
        </g>
      </g>
    </g>
  </g>
</svg>