<?xml version="1.0" encoding="UTF-8"?>
<svg id="Layer_1" xmlns="http://www.w3.org/2000/svg" version="1.1" viewBox="0 0 800 800">
  <!-- Generator: Adobe Illustrator 29.1.0, SVG Export Plug-In . SVG Version: 2.1.0 Build 142)  -->
  <defs>
    <style>
      .st0 {
        fill-rule: evenodd;
      }
    </style>
  </defs>
  <path class="st0" d="M720.9,384.2l-112.8-11-3.6-39.2,112.2-38.7,9.3,71.4-5.1,17.5ZM675.5,544.2l-30.1,21.9-77.8-88.5,29.9-38.5,88.7,65.1-10.7,39.9ZM551.6,278.3l1.9-112.1,64.1,6.3,3,4.2-23.1,108.8-45.9-7.2ZM553.5,336.4l14.4,36.8-14.1,53.5-185.1,5.7,80.6,10.3,10.4,49.3-10.4,52.1h-80.6l50.4,7.1,10.5,39.6-19.8,42H74.4v-29.6l-.4-270.5,59.3,1.3,185.8-161,49.7,22.8,11.5,49.4-89.2,91.3h262.4Z"/>
</svg>