<?xml version="1.0" encoding="utf-8"?>
<!-- Generator: Adobe Illustrator 28.3.0, SVG Export Plug-In . SVG Version: 6.00 Build 0)  -->
<svg version="1.1" id="Layer_1" xmlns="http://www.w3.org/2000/svg" xmlns:xlink="http://www.w3.org/1999/xlink" x="0px" y="0px"
	 viewBox="0 0 800 800" style="enable-background:new 0 0 800 800;" xml:space="preserve">
<style type="text/css">
	.st0{fill-rule:evenodd;clip-rule:evenodd;fill:#010101;}
</style>
<path class="st0" d="M542.7,717.5L541,725H249.4l0.6-1.8l-14.9-9.3l-26.1-56L84,559.1L138,439.7l80.2-110l117.5-31.8l5.6-24.2
	l-21.6-32.1l-21.3-92.8l29.8-52.2L372.5,75l50.6,3.2l47.8,23.8l25.2,48.5l-27.5,93.2l-22.9,31.8l1.8,22.3l117.5,29.8l85.8,118.7
	L716,558.8l-132.3,97.1L542.7,717.5z M240.6,473.2l-59.7,71.6l52.2,42.2l31.7,47.1l5.6,28.4l16.8-55L240.6,473.2z M544.6,473.2
	l-42.9,132.4l11.5,58.5l3.6,3.2l0.7,0.4l3.7-27.3l19.8-26.6l65.3-82.9L544.6,473.2z"/>
</svg>
