<svg width="35" height="31" viewBox="0 0 35 31" fill="none" xmlns="http://www.w3.org/2000/svg">
<path fill-rule="evenodd" clip-rule="evenodd" d="M24.4985 29.4411C26.3826 27.4669 27.7391 25.0233 28.3564 22.2746H35V29.4411H24.4985ZM26.4934 11.095H35V18.2214H28.7111C28.5845 15.6679 27.7917 13.2415 26.4934 11.095ZM12.573 3.51436C11.6625 3.51436 10.7699 3.58772 9.85857 3.72641V0H35V7.08635H22.9448C20.1384 4.8723 16.5214 3.51436 12.573 3.51436ZM25.0996 18.9341C25.0996 25.6158 19.4809 31 12.5498 31C5.61873 31 0 25.6158 0 18.9341C0 12.3324 5.61873 6.94828 12.5498 6.94828C19.4809 6.94828 25.0996 12.3324 25.0996 18.9341ZM11.8116 8.6408H8.52289V12.1993C6.11608 13.5742 4.50338 16.0936 4.50338 18.9745C4.50338 21.8554 6.11608 24.3748 8.52289 25.7496V29.3082H11.8116V26.8074C12.1117 26.8392 12.4164 26.8561 12.7252 26.8561C13.034 26.8561 13.3387 26.8392 13.6387 26.8074V29.3082H16.9275V25.7496C18.6728 24.7527 19.9999 23.1535 20.5979 21.2514H16.7946C15.977 22.5912 14.4612 23.4918 12.7252 23.4918C10.1226 23.4918 8.01282 21.4694 8.01282 18.9745C8.01282 16.4797 10.1226 14.4571 12.7252 14.4571C14.4612 14.4571 15.977 15.3577 16.7945 16.6976H20.5979C19.9999 14.7954 18.6728 13.1963 16.9275 12.1993V8.6408H13.6387V11.1415C13.3387 11.1097 13.034 11.0928 12.7252 11.0928C12.4164 11.0928 12.1117 11.1097 11.8116 11.1415V8.6408Z" fill="black"/>
</svg>
