<?xml version="1.0" encoding="utf-8"?>
<!-- Generator: Adobe Illustrator 27.8.1, SVG Export Plug-In . SVG Version: 6.00 Build 0)  -->
<svg version="1.1" id="Layer_1" xmlns="http://www.w3.org/2000/svg" xmlns:xlink="http://www.w3.org/1999/xlink" x="0px" y="0px"
	 viewBox="0 0 800 800" style="enable-background:new 0 0 800 800;" xml:space="preserve">
<g>
	<path d="M470.9,179.9h-73.1c-21.6,0-39,17.4-39,39v109.6c0,21.6,17.4,39,39,39h73.1c21.6,0,39-17.4,39-39V218.9
		C510,197.4,492.5,179.9,470.9,179.9z"/>
	<path d="M479.2,432.3H177.1c-17.4,0-31.5,13.3-30.7,30.7c0,16.6,13.3,30.7,30.7,30.7h302.2c16.6,0,30.7-13.3,30.7-30.7
		C510,446.4,496.7,432.3,479.2,432.3z"/>
	<path d="M177.1,240.5h97.1c16.6,0,30.7-14.1,30.7-30.7s-13.3-30.7-30.7-30.7h-97.1c-17.4,0-30.7,14.1-30.7,30.7
		S159.6,240.5,177.1,240.5z"/>
	<path d="M177.1,367.5h97.1c16.6,0,30.7-13.3,30.7-30.7c0-16.6-13.3-30.7-30.7-30.7h-97.1c-17.4,0-31.5,13.3-30.7,30.7
		C146.3,353.4,159.6,367.5,177.1,367.5z"/>
	<path d="M479.2,558.5H177.1c-17.4,0-31.5,14.1-30.7,30.7c0,16.6,13.3,30.7,30.7,30.7h302.2c16.6,0,30.7-13.3,30.7-30.7
		C510,572.6,496.7,558.5,479.2,558.5z"/>
	<path d="M739.1,497.9h-88V148.4C651.1,90.3,603.8,43,545.7,43H109.8C51.7,42.9,4.4,90.3,5.2,149.2v501.4
		C5.2,708.7,52.5,756,110.6,756h577c58.1,0,105.4-47.3,105.4-105.4v-98.8C793,522,769,497.9,739.1,497.9z M110.6,694.6
		c-24.1,0-44-19.9-44-44V149.2c0-24.1,19.9-44,44-44h435c24.1,0,44,19.9,44,44v509.7c0,12.5,2.5,24.9,6.6,35.7L110.6,694.6
		L110.6,694.6z M730.8,650.6c0,24.1-19.9,44-44,44c-19.9,0-35.7-15.8-35.7-35.7v-98.8h79.7V650.6z"/>
</g>
</svg>
