<?xml version="1.0" encoding="utf-8"?>
<!-- Generator: Adobe Illustrator 27.8.1, SVG Export Plug-In . SVG Version: 6.00 Build 0)  -->
<svg version="1.1" id="Layer_1" xmlns="http://www.w3.org/2000/svg" xmlns:xlink="http://www.w3.org/1999/xlink" x="0px" y="0px"
	 viewBox="0 0 800 800" style="enable-background:new 0 0 800 800;" xml:space="preserve">
<g>
	<polygon points="401.3,279.8 232.9,386.1 342.5,388.9 334.4,637.6 465.4,640.2 454.7,391.6 567.1,391.6 	"/>
</g>
<g>
	<path d="M728.3,0H71.7C32.2,0,0,12.2,0,71.7v676.6C0,767.8,32.2,800,71.7,800h656.6c39.5,0,71.7-32.2,71.7-51.7V71.7
		C800,12.2,767.8,0,728.3,0z M752.7,202.1v526.2h0c0,13.4-10.9,24.4-24.4,24.4H71.7c-13.4,0-24.4-10.9-24.4-24.4V202.1H752.7z
		 M752.7,71.7v83.1H47.3V71.7c0-13.4,10.9-24.4,24.4-24.4h656.6C741.7,47.3,752.7,58.3,752.7,71.7z"/>
	<path d="M103.9,71.3c-16.3,0-29.5,13.2-29.5,29.5s13.2,29.5,29.5,29.5c16.3,0,29.5-13.2,29.5-29.5S120.1,71.3,103.9,71.3z"/>
	<path d="M181.5,71.3c-16.3,0-29.5,13.2-29.5,29.5s13.2,29.5,29.5,29.5c16.3,0,29.5-13.2,29.5-29.5S197.8,71.3,181.5,71.3z"/>
	<path d="M259.2,71.3c-16.3,0-29.5,13.2-29.5,29.5s13.2,29.5,29.5,29.5c16.3,0,29.5-13.2,29.5-29.5S275.5,71.3,259.2,71.3z"/>
</g>
</svg>
