<?xml version="1.0" encoding="UTF-8"?>
<svg id="Layer_1" data-name="Layer 1" xmlns="http://www.w3.org/2000/svg" version="1.1" viewBox="0 0 20 20">
  <defs>
    <style>
      .cls-1 {
        fill: #000;
        fill-rule: evenodd;
        stroke-width: 0px;
      }
    </style>
  </defs>
  <path class="cls-1" d="M14.5,2.9l1-2.2-.3-.4-5.6,2.3v.6c-.1,0,2.2,5.3,2.2,5.3h.7c0-.1.7-2.2.7-2.2,1.4,1.1,2.8,2.8,2.8,4.5,0,3.1-2.5,5.7-5.7,5.7s-5.7-2.5-5.7-5.7,1-3.8,2.6-4.8l-.4-3.5C3.6,3.9,1.3,7.1,1.3,10.8s4,8.9,8.9,8.9,8.9-4,8.9-8.9-1.9-6.4-4.7-7.9Z"/>
</svg>