<?xml version="1.0" encoding="UTF-8"?>
<svg xmlns="http://www.w3.org/2000/svg" version="1.1" viewBox="0 0 800 800">
  <!-- Generator: Adobe Illustrator 28.7.1, SVG Export Plug-In . SVG Version: 1.2.0 Build 142)  -->
  <g>
    <g id="Layer_1">
      <g>
        <path d="M80.3,428.6l169.7,112.3v-80l-97.2-60.9,97.2-60.3v-80.7c-56.6,37.4-113.1,74.9-169.7,112.3v57.2h0Z"/>
        <path d="M719.7,428.6l-169.7,112.3v-80l97.2-60.9-97.2-60.3v-80.7c56.6,37.4,113.1,74.9,169.7,112.3v57.2h0Z"/>
      </g>
      <polygon points="342.8 427.4 295.2 427.4 291.2 371.6 346.8 371.6 342.8 427.4"/>
      <polygon points="422.8 427.4 375.2 427.4 371.2 371.6 426.8 371.6 422.8 427.4"/>
      <polygon points="502.8 427.4 455.1 427.4 451.1 371.6 506.8 371.6 502.8 427.4"/>
    </g>
  </g>
</svg>