<?xml version="1.0" encoding="UTF-8"?>
<svg xmlns="http://www.w3.org/2000/svg" version="1.1" viewBox="0 0 800 800">
  <defs>
    <style>
      .cls-1 {
        fill-rule: evenodd;
      }
    </style>
  </defs>
  <!-- Generator: Adobe Illustrator 28.7.1, SVG Export Plug-In . SVG Version: 1.2.0 Build 142)  -->
  <g>
    <g id="Layer_1">
      <polygon points="306.4 445.5 227.6 445.5 221 353.5 313 353.5 306.4 445.5"/>
      <polygon points="438.4 445.5 359.6 445.5 353 353.5 445 353.5 438.4 445.5"/>
      <polygon points="570.4 445.5 491.6 445.5 485 353.5 577 353.5 570.4 445.5"/>
      <path class="cls-1" d="M682.6,444.9l-18.8,45.4v60.5l-3.8,60.5-19.1,41.6-37.1,22.7-60.4,3.8-3.7-56.7h34.1l18.8-15.1,3.8-37.8,3.8-83.2,7.5-37.8,25.9-34,26.3-15.1-30-22.3-22.1-41.6-7.5-49.2v-68.1l-7.5-34-15-11.3h-34.1v-53.3h52.9l37.1,11.7,22.5,30.3,7.9,49.2v94.6l7.5,34,18.8,18.9,37.1,3.8,3.8,75.3-48.4,7.6ZM202.1,184.3l-7.5,34v68.1l-7.5,49.2-22.1,41.6-30,22.3,26.3,15.1,25.9,34,7.5,37.8,3.8,83.2,3.8,37.8,18.8,15.1h34.1l-3.8,56.7-60.4-3.8-37.1-22.7-19.1-41.6-3.8-60.5v-60.5l-18.8-45.4-45-7.6.4-75.3,37.1-3.8,18.8-18.9,7.5-34v-94.6l7.9-49.2,22.5-30.3,37.1-11.7h52.9v53.3h-34.1l-15,11.3Z"/>
    </g>
  </g>
</svg>