<?xml version="1.0" encoding="UTF-8"?>
<svg id="Layer_1" data-name="Layer 1" xmlns="http://www.w3.org/2000/svg" version="1.1" viewBox="0 0 800 800">
  <defs>
    <style>
      .cls-1 {
        fill: #000;
        stroke-width: 0px;
      }
    </style>
  </defs>
  <polygon class="cls-1" points="374.3 529.7 316.7 562.6 296.3 568.1 265.4 561.7 201.3 529.6 202.3 563.5 193.2 599.2 178.6 605.6 296.4 644.1 402.7 600.2 380.7 576.4 374.3 529.7"/>
  <polygon class="cls-1" points="197.6 358.7 159.2 408.2 173.8 441.1 198.5 490.4 232.3 523.4 278 547.2 296.1 551.7 303.6 550 350.2 522.8 381.3 493.2 399.6 457.5 424.3 397.2 396.9 347.8 372.2 320.4 338.4 341.6 248.8 386.4 265.3 321.3 197.6 358.7"/>
  <path class="cls-1" d="M723.4,238.3v-117.4l-117.4,14.1v30.6l-125.1,100.1-1.6-7.6-16.5-32.9-25.6-44.9-36.5-33.8-53.1-25-68.6-.6-59.4,3.7-58.6,41.1-47.6,49.4-21.1,59.4-9.1,35.7,16.5,72-6.9,52.4,24.4-11.9,29.3,59.4,21.9-1c1.5-1.1-30.2-74.1-30.2-74.1l54.3-70.3,86.5-41.1-1.8,38.4-6.5,24.8,56.7-31.9,42-33.2,43.9,43,32.9,62.1-27.2,68.9-.3.6,187.2,122.1v39.4l117.4,14.1v-117.4l-117.4,14.1v26.7l-158.6-103.4,26.2-59.7,18.5,3.7-1.8-14.1,115.7-3.6v50.7l117.4-14v-89.2l-117.4-14v46.8l-118.1,3.7-.7-5.7,4-52.1-5.9-29,120.7-96.6v33.2l117.4,14.1Z"/>
</svg>