<?xml version="1.0" encoding="UTF-8"?>
<svg id="Layer_1" data-name="Layer 1" xmlns="http://www.w3.org/2000/svg" version="1.1" viewBox="0 0 1200 1200">
  <defs>
    <style>
      .cls-1 {
        fill: #000;
        stroke-width: 0px;
      }
    </style>
  </defs>
  <path class="cls-1" d="M282.1,840.1c3.8,9.7,13.1,15.9,23.6,15.9h153.6c14.1,0,25.6-11.5,25.6-25.6s-11.5-25.6-25.6-25.6h-91.9l109.8-109.8c7.4-7.4,9.5-18.4,5.6-27.9-3.8-9.7-13.1-15.9-23.5-15.9h-153.6c-14.1,0-25.6,11.5-25.6,25.6s11.5,25.6,25.6,25.6h91.9l-109.8,109.8c-7.4,7.4-9.7,18.4-5.6,27.9h0Z"/>
  <path class="cls-1" d="M538.1,635.3c3.8,9.7,13.1,15.9,23.6,15.9h128c14.1,0,25.6-11.5,25.6-25.6s-11.5-25.6-25.6-25.6h-66.3l84.2-84.2c7.4-7.4,9.5-18.2,5.6-27.9-3.8-9.7-13.1-15.9-23.6-15.9h-128c-14.1,0-25.6,11.5-25.6,25.6s11.5,25.6,25.6,25.6h66.3l-84.2,84.2c-7.4,7.4-9.7,18.4-5.6,27.9h0Z"/>
  <path class="cls-1" d="M920,472c0-14.1-11.5-25.6-25.6-25.6h-40.7l58.6-58.6c7.4-7.4,9.5-18.2,5.6-27.9-3.8-9.7-13.1-15.9-23.6-15.9h-102.4c-14.1,0-25.6,11.5-25.6,25.6s11.5,25.6,25.6,25.6h40.7l-58.6,58.6c-7.4,7.4-9.5,18.2-5.6,27.9,3.8,9.7,13.1,15.9,23.5,15.9h102.4c14.1,0,25.6-11.5,25.6-25.6h0Z"/>
</svg>