<svg width="34" height="39" viewBox="0 0 34 39" fill="none" xmlns="http://www.w3.org/2000/svg">
<path fill-rule="evenodd" clip-rule="evenodd" d="M30.1474 25.1053C29.3193 23.6291 27.784 22.6368 26.0255 22.6368C23.3893 22.6368 21.2522 24.8653 21.2522 27.6141C21.2522 30.363 23.3893 32.5914 26.0255 32.5914C27.784 32.5914 29.3194 31.5991 30.1475 30.1229H34C33.3943 32.2187 32.0501 33.9807 30.2821 35.0791V39H26.9508V36.2446C26.647 36.2797 26.3383 36.2983 26.0255 36.2983C25.7127 36.2983 25.4041 36.2797 25.1001 36.2446V39H21.7689V35.0791C19.3309 33.5643 17.6974 30.7883 17.6974 27.6141C17.6974 24.4399 19.3309 21.6639 21.7689 20.1491V16.2282H25.1001V18.9836C25.4041 18.9485 25.7127 18.9299 26.0255 18.9299C26.3383 18.9299 26.647 18.9485 26.9508 18.9836V16.2282H30.2821V20.1491C32.05 21.2476 33.3942 23.0095 34 25.1053H30.1474ZM13.2817 27.6383C13.2817 30.8559 14.4226 33.806 16.2497 36.1038H0L0.0470817 33.0611L4.19027 29.6798C4.19027 29.6798 4.09446 14.1425 6.07354 10.6827C8.97165 5.61633 14.2234 4.30784 14.2234 4.30784C14.2234 4.30784 13.8083 0.319726 17.1377 0.00480939V0C17.1457 0.00063798 17.1533 0.00171764 17.1613 0.00240469C17.1692 0.00171764 17.1768 0.00063798 17.1424 0V0.00480939C20.5143 0.319726 20.0144 4.30784 20.0144 4.30784C20.0144 4.30784 25.3509 5.61633 28.2066 10.6827C28.7172 11.5013 29.0693 12.9984 29.334 14.8071C28.2891 14.5182 27.1918 14.3192 26.0597 14.3192C19.026 14.3192 13.2817 20.3068 13.2817 27.6383Z" fill="black"/>
</svg>
