<?xml version="1.0" encoding="UTF-8"?>
<svg id="Layer_1" data-name="Layer 1" xmlns="http://www.w3.org/2000/svg" version="1.1" viewBox="0 0 800 800">
  <defs>
    <style>
      .cls-1 {
        fill: #000;
        stroke-width: 0px;
      }
    </style>
  </defs>
  <path class="cls-1" d="M512.4,286.6h-69.7c-36.3,36.3-71.7,71.6-106.9,106.7h41.4c10.7,10.7,20.9,20.9,31.6,31.6-.8,13.7-.5,28-.6,42.4,1.6,0,2-1,2.6-1.6,34.2-34.1,68.3-68.3,102.5-102.4,1.6-1.6,2.2-3.2,2.2-5.4v-65.6c0-2.5-.7-4.4-3.2-5.7h0Z"/>
  <path class="cls-1" d="M377,422.6h-70.7c-31.6,31.5-62.8,62.6-94.3,94,.3,13.7-.3,27.7-.5,41,11.2,11.2,22,22,33.1,33.1,13.5-.4,27.5-.8,41.1-.6,31.5-31.6,62.6-62.8,93.9-94.2v-70.8c-.8-1.1-1.5-2-2.6-2.5h0Z"/>
  <path class="cls-1" d="M717.5,80.5H136.6l-56.6,56.7v113.1l58,58h165.7l-183.4,183.4v150.7l17.6,17.7,2.5,2.4,17.6,17.7h150.7l183.4-183.5v165.7l58,58h113.2l56.6-56.6V82.9l-2.5-2.4h.1ZM643.9,696.5h-76c-17.2-17.2-34.2-34.1-51.4-51.4-.6-54.7.4-109.8.4-165.3,3.8-3.6,7.8-7.3,11.7-10.9-6.6-6.5-12.9-12.7-18.9-18.7-69.8,69.7-139.7,139.5-209.1,208.9-42.2.6-83.5-.3-124.5-.2-11.1-11.1-21.8-21.9-32.8-32.8v-123.2c70-70,139.7-139.9,209.3-209.5l-18.9-18.9c-3.4,3.7-7.1,7.8-9.9,11h-166.8c-16.8-16.9-33.7-33.7-50.9-51v-77.1c17.3-17.3,34.7-34.7,52.2-52.2h536.2c1.3.4,1.9,1.2,2.2,1.7,1.3,179.1,0,358.1.8,536.4-18,18-35.5,35.5-53.5,53.4h0Z"/>
  <path class="cls-1" d="M639.4,181.4c0-4.2,0-8.4,0-12.6,0-2.6-.6-4.7-3-5.9H196.5l-28.6,28.6c-.8,5.1-.4,10.9-.3,15.9,8.5,8.4,16.3,16.3,24.6,24.5,70.3-1.2,141.2,0,212.1.1,8.9,8.9,17.7,17.6,26.3,26.4,2,2,4,2.9,6.9,2.8h69c1.6,0,3.2-.2,4.4.6,9.8,9.8,19.7,19.7,30,30-.6,25.4.7,51.4.5,77.8,9.7,9.7,19.4,19.3,29,28.9v212c8.1,8.1,16.1,16,24.4,24.3h14.3c1.2,0,2.5-.3,3.4-1.2,8.9-9,17.9-18,27-27.1v-4c0-21.4,0-42.9,0-64.3,0-62.8,0-125.6,0-188.4s0-112.2,0-168.3h0Z"/>
</svg>