<?xml version="1.0" encoding="UTF-8"?>
<svg id="Layer_1" data-name="Layer 1" xmlns="http://www.w3.org/2000/svg" version="1.1" viewBox="0 0 800 800">
  <defs>
    <style>
      .cls-1 {
        fill: #000;
        fill-rule: evenodd;
        stroke-width: 0px;
      }
    </style>
  </defs>
  <path class="cls-1" d="M486.9,712.6l-1.5,7.4H226.5l.5-1.8-13.2-9.2-23.2-55.1-110.9-97.4,48.1-117.5,71.1-108.4,104.3-31.2,5-23.9-19.1-31.6-18.9-91.3,26.5-51.4,39.3-21.1,44.9,3.1,42.4,23.5,22.4,47.8-24.4,91.7-20.3,31.3,1.7,22,104.3,29.4,76.1,116.9,57.8,110.8-117.4,95.5-36.4,60.6ZM218.7,472l-52.9,70.5,46.4,41.5,28.2,46.4,5,28,14.9-54.1-41.5-132.2ZM488.6,472l-38.1,130.3,10.1,57.6,3.2,3.2.6.4,3.3-26.9,17.6-26.2,57.9-81.6-54.6-56.9Z"/>
  <g>
    <path class="cls-1" d="M639.7,556.5l-57.8-110.8-66-101.3,8.3,13.6-4,19.4-84.7,25.5-40.6,135,14.4,109.2,26.2,28.4,12.1,35.6,10.7,7.5-.4,1.5h26.5l1.5-7.4,36.4-60.6,117.3-95.5ZM484.2,610.6l-17.6,26.2-3.3,26.9-.6-.4-3.2-3.2-10.1-57.6,38.1-130.3,54.6,56.9-57.9,81.6Z"/>
    <polygon class="cls-1" points="685.4 401.4 600.7 377.5 599.4 359.5 615.9 334 635.7 259.3 617.5 220.5 583.1 201.3 546.6 198.8 514.7 215.9 493.2 257.8 500.3 292.1 514.9 296.2 527.2 299.7 534.1 310.3 610.2 427.3 611.1 428.6 611.9 430 669.8 540.9 682.5 565.4 661.1 582.8 548.3 674.5 520.9 720 668.1 720 669.3 714 678.7 675.3 710.7 647.1 720.4 552.2 685.4 401.4"/>
  </g>
</svg>