<?xml version="1.0" encoding="UTF-8"?>
<svg id="Layer_1" data-name="Layer 1" xmlns="http://www.w3.org/2000/svg" version="1.1" viewBox="0 0 800 800">
  <defs>
    <style>
      .cls-1 {
        fill: #010101;
        stroke-width: 0px;
      }
    </style>
  </defs>
  <path class="cls-1" d="M348.4,638l7.1-45.8-40.3-20.5-6.3-16.6,24-44.2-38.2-27.7-38,25.3-25.2-3.1-26.5-37.9-41.6,24.5,6.3,38.7-10.3,11.8-48.2,2.4-8.7,43.4,46.7,24.9,6.3,17-23.7,45.8,32.4,25.2,41.9-26.9,21.4,5.7,29.9,40.1,32.5-16.6-1.6-47.3,13.5-14.2,46.7-3.9ZM256.4,617.5l-30.2,8.2-24.7-18.5-4.8-21.9,17.1-22.6,26.7-6.2,24.7,14.7,4.8,22.5-13.7,23.7Z"/>
  <polygon class="cls-1" points="540.6 372 512.4 391.1 505.6 333.8 494.4 264.2 461.8 320.6 410.1 365.3 374.6 404.5 371.9 320.6 321.4 367.5 275.4 403.4 256.3 412.3 256.3 338.3 218 414.2 251.7 462.5 295.8 433.2 386.3 498.9 359.6 548.1 400.9 569.1 384.2 676.2 330.4 680.8 355.1 698.7 398.9 718.9 404.5 720 444.9 698.7 540.5 639.2 569.6 613.4 583.1 533.7 599.9 445 567.4 336.1 540.6 372"/>
  <polygon class="cls-1" points="702.2 320.6 667.4 228.2 622.5 170.9 614.6 159.7 596.6 144 584.7 137.9 576.4 143.5 508.5 98.5 496.7 92.4 405.7 80 319.3 89 272.3 105.8 272.1 104.7 194.6 154.1 141.9 214.7 115.7 288.8 91.3 359.6 90.3 486.5 118.4 470.9 171.9 439.4 289.1 214.3 290.1 215.9 288.9 356.2 363.6 275.4 421.4 187.8 403.4 338.1 476.4 231.6 514.6 151.9 537 325.8 565.1 236 565.5 234.7 605.5 337.1 643.7 459.5 631.3 523.5 612.3 583 668.4 554.9 669.5 473 710.1 491 710.1 376.4 702.2 320.6"/>
</svg>