<?xml version="1.0" encoding="UTF-8"?>
<svg id="Layer_1" data-name="Layer 1" xmlns="http://www.w3.org/2000/svg" version="1.1" viewBox="0 0 800 800">
  <defs>
    <style>
      .cls-1 {
        fill: #010101;
        fill-rule: evenodd;
        stroke-width: 0px;
      }
    </style>
  </defs>
  <path class="cls-1" d="M113.3,636.6h584.5l22.2-473.1H80l33.3,473.1ZM210.2,599.5h-73.5l11.1-53h51.2l11.2,53ZM436.9,599.5h-73.6l11.1-53h51.6l11.1,53.1h-.2ZM590,196.1h73.6l-11.1,53.1h-51.4l-11.1-53.1ZM612.2,546.7h40.1l11.1,52.7h-73.6l11.1-52.7h11.2ZM485.9,196.1h51.2l11.1,53h-73.4l11.1-53ZM474.8,546.6h73.4l-11.1,53h-51.3l-11.1-53h0ZM362.9,196.1h74.1l-11.1,53h-51.9l-11.1-53ZM352,325.9l96,55.6c17.7,10.2,17.7,26.9,0,37.1l-96,55.6c-17.7,10.2-32.1,1.8-32.1-18.5v-111.2c-.2-20.2,14.5-28.6,32.1-18.5h0ZM259.2,196.1h51l11.1,53h-73.2l11.1-53ZM248.1,546.6h73.2l-11.1,53h-51l-11.1-53.1h0q0,0,0,0ZM136.5,196.1h73.7l-11.1,53.1h-51.5l-11.1-53.1Z"/>
</svg>