<?xml version="1.0" encoding="UTF-8"?>
<svg id="Layer_1" data-name="Layer 1" xmlns="http://www.w3.org/2000/svg" version="1.1" viewBox="0 0 800 800">
  <defs>
    <style>
      .cls-1 {
        fill: #000;
        fill-rule: evenodd;
        stroke-width: 0px;
      }
    </style>
  </defs>
  <path class="cls-1" d="M685.2,315.8l-65.3-76.6-99.1-61.9-105.5-16.5-87.1,8.2-74,28.9-100.1,74.4-43.5,49.6-30.5,74.6,13.1,32.6,47.9,70.2,82.7,74.3,108.9,41.3,95.8,8.2,92.4-20.7,94.8-61.9,39.2-37.1,43.5-61.9,21.8-45.1-34.8-80.6ZM537.2,470.4l-95.8,70.2-21.8,4.1-74-8.2-65.3-41.3-39.2-58.4,4.3-81.9,74-78.9,74-36.8,74,12.4,61.7,41.3,25.3,63.3,4.3,60.6-21.7,53.7Z"/>
  <polygon class="cls-1" points="428.3 321.8 376 317.6 336.5 347.5 325.4 392 343.2 432.6 393.8 457.2 442.5 447.3 476.2 412.6 480.6 379.5 458.8 338.3 428.3 321.8"/>
</svg>