<?xml version="1.0" encoding="UTF-8"?>
<svg id="Layer_1" data-name="Layer 1" xmlns="http://www.w3.org/2000/svg" version="1.1" viewBox="0 0 800 800">
  <defs>
    <style>
      .cls-1 {
        fill: #010101;
        fill-rule: evenodd;
        stroke-width: 0px;
      }
    </style>
  </defs>
  <path class="cls-1" d="M449.4,713.3l-143.1-11.6L85.8,441l-5.8-95.7L335.4,86.7l147,3.4,237.7,270.2v106.9l-270.6,246.1ZM557.8,345.3l-46.4-99.4-52.3,20.7,27.1,101.3-39,26.3-17.1-65.7-21.3-82.6-17.4-65.6-56.1,13.1,7.7,73.2,15.5,101.3,9.6,58.2-38.6,20.6-19.4-63.8-23.2-71.3-36.7,7.6-25.2,138.8,83.2,86.3,84.2,75,116.4-93.8,74.2-73.2-25.3-106.9Z"/>
</svg>