<svg width="52" height="43" viewBox="0 0 52 43" fill="none" xmlns="http://www.w3.org/2000/svg">
<path fill-rule="evenodd" clip-rule="evenodd" d="M1.74547 30.8591L3.39678 34.9211L6.69863 38.309L8.76316 36.4633L6.97411 34.9211L5.0481 32.2595L3.94696 28.6202L3.25905 24.3137L4.0847 19.5454L5.87297 15.5469L8.62542 12.4712L6.97411 10.1636L4.22244 12.9322L2.29565 16.4697L0 22.0061V26.3125L1.74547 30.8591ZM6.49864 22.0061L6.3609 26.7744L8.14917 31.0809L10.3514 33.5207L11.7273 31.3879L10.076 28.9272L8.97482 26.1595L9.52578 20.7762L11.7273 16.7776L10.4884 14.7779L9.38804 15.7008L7.32429 18.4694L6.49864 22.0061Z" fill="black"/>
<path d="M25.3527 3.14328L34.1858 1.13158L40.4952 3.14328L39.8643 1.6345L37.3405 0L41.8833 1.13158L43.3976 4.14912H45.5428L47.5618 6.16082L50.8427 10.9386L51.5998 20.3684L49.4546 27.0322V33.6959L46.4261 30.9298L45.5428 32.4386L48.9499 37.3421L34.1858 43V40.4854L32.924 37.7193L30.5264 35.3304L27.8764 34.9532L25.3527 35.7076L23.0813 36.3363L21.567 34.9532L21.0623 32.9415L20.6837 32.4386L20.0528 31.5585L21.0623 30.4269L19.548 29.6725L20.0528 27.6608L17.7814 26.2778L20.0528 23.5117L20.6837 21.6257L19.548 20.3684V16.7222L20.0528 14.2076L18.9171 15.5906L17.7814 17.9818L16.0271 13.6818L19.548 7.03636L25.3527 3.14328Z" fill="black"/>
</svg>
