<?xml version="1.0" encoding="UTF-8"?>
<svg id="Layer_1" data-name="Layer 1" xmlns="http://www.w3.org/2000/svg" version="1.1" viewBox="0 0 800 800">
  <defs>
    <style>
      .cls-1 {
        fill: #010101;
        fill-rule: evenodd;
        stroke-width: 0px;
      }
    </style>
  </defs>
  <path class="cls-1" d="M680.3,473.9c-22,0-39.7-15.6-39.7-34.8v-78c0-19.3,17.8-34.8,39.7-34.8s39.7,15.6,39.7,34.8v78c0,19.2-17.9,34.8-39.7,34.8h0ZM540.2,555.9c-22,0-39.7-15.6-39.7-34.8v-242.1c0-19.3,17.8-34.8,39.7-34.8s39.7,15.6,39.7,34.8v242c0,19.3-17.9,34.9-39.7,34.9h0ZM400,720.1c-22,0-39.7-15.6-39.7-34.8V114.8c0-19.3,17.8-34.8,39.7-34.8s39.7,15.6,39.7,34.8v570.2c0,19.3-17.9,34.9-39.7,34.9h0ZM259.8,555.9c-22,0-39.7-15.6-39.7-34.8v-242.1c0-19.3,17.8-34.8,39.7-34.8s39.7,15.6,39.7,34.8v242c0,19.3-17.9,34.9-39.7,34.9h0ZM119.7,473.9c-22,0-39.7-15.6-39.7-34.8v-78c0-19.3,17.8-34.8,39.7-34.8s39.7,15.6,39.7,34.8v78c0,19.2-17.9,34.8-39.7,34.8h0Z"/>
</svg>