<?xml version="1.0" encoding="UTF-8"?>
<svg id="Layer_1" data-name="Layer 1" xmlns="http://www.w3.org/2000/svg" version="1.1" viewBox="0 0 800 800">
  <defs>
    <style>
      .cls-1 {
        fill: #000;
        stroke-width: 0px;
      }
    </style>
  </defs>
  <path class="cls-1" d="M748.8,354.2l-59.7,44-127.9,70.9-15-25.2,33.6-18.7-8.4-40.2-38.3,14.1-11.2-18.7,78.5-39.2,78.5-47.6,45.8-46.7,35.5,87.8-11.3,19.5ZM657.3,249.6l-50.5,7.4-91.5,18.7-115.8,38.3-133.5,58.9-84,50.5-57,42.9-48.5,5.6-36.4-5.6,16.8-28.1,53.2-41.1,105.5-56.1,157.8-66.3,174.6-62.6,102.8-22.4h47.6l7.4,11.2-15.9,30.9-32.7,17.7ZM292.2,467.3l39.2,93.4-95.2,25.2-108.4,24.2-32.7-6.5-34.6-84,89.6-10.3,142-42ZM330.5,400l124.2-50.5,16.8,9.4,21.5,57.9-88.7,20.6,17.7,32.7,14,36.4,75.6-46.7,23.3,57-9.4,18.7-119.6,46.7-26.2-8.4-56.9-153.1,7.5-20.6Z"/>
</svg>