<?xml version="1.0" encoding="UTF-8"?>
<svg id="Layer_1" data-name="Layer 1" xmlns="http://www.w3.org/2000/svg" version="1.1" viewBox="0 0 800 800">
  <defs>
    <style>
      .cls-1 {
        fill: #000;
        stroke-width: 0px;
      }
    </style>
  </defs>
  <polygon class="cls-1" points="132.7 519.7 128.8 141.5 468.6 147.2 519.3 93.9 74.5 89 85.3 551.3 132.7 519.7"/>
  <polygon class="cls-1" points="642.1 642.1 276.8 661.5 263.4 712.1 707.1 698.1 726.6 231.1 667.3 283.5 642.1 642.1"/>
  <polygon class="cls-1" points="745.4 105.3 674.8 40 397.3 308.4 444.4 362.8 726.9 165.5 701.9 143.4 745.4 105.3"/>
  <polygon class="cls-1" points="371.9 315.7 276.9 407.9 342.9 471.6 440.8 390 371.9 315.7"/>
  <polygon class="cls-1" points="290.3 546 321.1 489.8 263.1 430 244.9 516.9 228.6 529.6 188.7 540.6 54.6 653 92.6 723.7 206.8 760 252.2 602.2 292.1 587.7 290.3 546"/>
  <polygon class="cls-1" points="358.5 481 424.5 502.5 411.8 469.8 410 442.7 358.5 481"/>
</svg>