<?xml version="1.0" encoding="utf-8"?>
<!-- Generator: Adobe Illustrator 27.6.1, SVG Export Plug-In . SVG Version: 6.00 Build 0)  -->
<svg version="1.1" id="Layer_1" xmlns="http://www.w3.org/2000/svg" xmlns:xlink="http://www.w3.org/1999/xlink" x="0px" y="0px"
	 viewBox="0 0 800 800" style="enable-background:new 0 0 800 800;" xml:space="preserve">
<style type="text/css">
	.st0{fill-rule:evenodd;clip-rule:evenodd;fill:#010101;}
</style>
<g>
	<circle class="st0" cx="654.4" cy="703" r="59.8"/>
	<circle class="st0" cx="296" cy="703" r="59.8"/>
	<polygon class="st0" points="745.9,480.6 749,481 780.4,194.1 696.3,189.6 683.8,408.8 683.7,408.8 227.1,408.6 171.2,169.4 
		80.3,163.8 19.6,163.8 19.6,236.1 93.7,218.8 166,515.4 189.6,613.1 741.4,596.9 746,521.7 260.4,551.5 245.4,490 745.9,481 	"/>
	
		<rect x="355.4" y="38.5" transform="matrix(0.7071 -0.7071 0.7071 0.7071 50.4362 326.3315)" class="st0" width="127.5" height="127.5"/>
	
		<rect x="470.6" y="153.7" transform="matrix(0.7071 -0.7071 0.7071 0.7071 2.7226 441.5224)" class="st0" width="127.5" height="127.5"/>
	
		<rect x="298.5" y="210.5" transform="matrix(0.7071 -0.7071 0.7071 0.7071 -87.8435 336.5314)" class="st0" width="127.5" height="127.5"/>
</g>
</svg>
