<?xml version="1.0" encoding="utf-8"?>
<!-- Generator: Adobe Illustrator 27.6.1, SVG Export Plug-In . SVG Version: 6.00 Build 0)  -->
<svg version="1.1" id="Layer_1" xmlns="http://www.w3.org/2000/svg" xmlns:xlink="http://www.w3.org/1999/xlink" x="0px" y="0px"
	 viewBox="0 0 800 800" style="enable-background:new 0 0 800 800;" xml:space="preserve">
<style type="text/css">
	.st0{fill-rule:evenodd;clip-rule:evenodd;fill:#010101;}
</style>
<polygon class="st0" points="438.3,421.6 372.8,421.6 328.3,7 471.7,7 "/>
<path class="st0" d="M549.5,60.9l-14.9,146.4c62.6,42.9,103.7,115,103.7,196.6c0,131.6-106.7,238.2-238.2,238.2
	S161.8,535.5,161.8,404c0-84.2,43.7-158.3,109.7-200.6L256,58.6C120.9,115,25.9,248.4,25.9,404c0,206.6,167.5,374.1,374.1,374.1
	S774.1,610.6,774.1,404C774.1,250.5,681.7,118.6,549.5,60.9z"/>
</svg>
