<?xml version="1.0" encoding="UTF-8"?>
<svg id="Layer_1" data-name="Layer 1" xmlns="http://www.w3.org/2000/svg" version="1.1" viewBox="0 0 800 800">
  <defs>
    <style>
      .cls-1 {
        fill: #000;
        fill-rule: evenodd;
        stroke-width: 0px;
      }
    </style>
  </defs>
  <path class="cls-1" d="M579.4,514c-25.9,0-49.7-8.9-68.7-23.7l-3.1,3.1-174.6,107.5c0,2.1.3,4,.3,6.1,0,69.7-43.6,113.5-112.7,113.5s-112.7-43.8-112.7-113.5,50.5-113.5,112.7-113.5,47.9,8.3,66.6,22.1l179.5-104.7s.4,3.6,0,0c-1.1-10.7,2-14.3,2.9-16.2l-183.9-107.9c-18.4,13.1-40.8,20.9-65.1,20.9-62.3,0-112.7-43.9-112.7-113.5s50.5-113.5,112.7-113.5,112.7,50.8,112.7,113.5-.2,5.7-.4,8.6l184.6,109.5c10.4-15.8,35-25.2,61.8-25.2,69.2,0,112.7,50.8,112.7,113.5,0,69.8-43.4,113.6-112.6,113.6Z"/>
</svg>