<?xml version="1.0" encoding="UTF-8"?>
<svg id="Layer_1" data-name="Layer 1" xmlns="http://www.w3.org/2000/svg" version="1.1" viewBox="0 0 800 800">
  <defs>
    <style>
      .cls-1 {
        fill: #010101;
        fill-rule: evenodd;
        stroke-width: 0px;
      }
    </style>
  </defs>
  <path class="cls-1" d="M675.2,614.9l-35.1,17.5-52.6-8.8-26.3,26.3,26.3,43.8-17.5,26.3h-52.6l-61.4-26.3-61.3-61.3-8.7-70.1,8.8-78.9,43.8-61.3,43.8-26.3,52.6-8.8,78.9,8.8,61.4,43.8,35,61.4v70.1l-35.1,43.8ZM456.1,492.2c-19.4,0-35.1,15.7-35.1,35.1s15.7,35.1,35.1,35.1,35.1-15.7,35.1-35.1-15.7-35.1-35.1-35.1ZM543.8,422.1c-19.4,0-35,15.7-35,35s15.7,35.1,35,35.1,35.1-15.7,35.1-35.1c0-19.3-15.8-35-35.1-35ZM640.2,474.7c-19.4,0-35.1,15.7-35.1,35.1s15.7,35.1,35.1,35.1,35.1-15.7,35.1-35.1c0-19.4-15.8-35.1-35.1-35.1ZM607.3,294.6l19.3,10.8.2,25-18.7,16.5-77.1-8.5-16.7,2.8,46.8-19.7,46.1-26.8ZM554.4,306.6l-49.9,31.5.5,4.5-41.9,7-56.5,34-56.6,79.3-11.3,102v.6c0,0-47.1,90.5-47.1,90.5l-70.1-30.5-83.6-64.2-48.2-67.8,40.2-40.8,43.4-35.1,13.8.2,26.5-32,7.3-4.5-13.3-85.7,6.6-80.5,1.2-65.6,40.7,9.2,20.7,45.9,8.1,48.2,18.2,23.7,27.2-26.3,32.3-34.7,47.5-67.4,26.1-58.1,28.2-10.1,29.6,20.2-39.9,78.3-39.9,65.7,4.8,3.8,58.7-60.1,64.2-78.8,31.8,11,9.9,29.9-64.5,77.1-52.6,60.2,4.9,5.5,66.8-41.2,74.2-60.1,26.8,13-6.5,29.5-78,72.6Z"/>
</svg>