<?xml version="1.0" encoding="UTF-8"?>
<svg id="Layer_1" data-name="Layer 1" xmlns="http://www.w3.org/2000/svg" version="1.1" viewBox="0 0 800 800">
  <defs>
    <style>
      .cls-1 {
        fill: #010101;
        fill-rule: evenodd;
        stroke-width: 0px;
      }
    </style>
  </defs>
  <path class="cls-1" d="M707.2,720h-166.4c-7,0-12.8-5.7-12.8-12.8v-166.4c0-7,5.7-12.8,12.8-12.8h166.4c7,0,12.8,5.7,12.8,12.8v166.4c0,7-5.8,12.8-12.8,12.8ZM707.2,496h-166.4c-7,0-12.8-5.7-12.8-12.8v-166.4c0-7,5.7-12.8,12.8-12.8h166.4c7,0,12.8,5.7,12.8,12.8v166.4c0,7.1-5.8,12.8-12.8,12.8ZM483.1,720h-166.4c-7,0-12.8-5.7-12.8-12.8v-166.4c0-7,5.7-12.8,12.8-12.8h166.4c7,0,12.8,5.7,12.8,12.8v166.4c0,7-5.7,12.8-12.8,12.8ZM483.1,496h-166.4c-7,0-12.8-5.7-12.8-12.8v-166.4c0-7,5.7-12.8,12.8-12.8h166.4c7,0,12.8,5.7,12.8,12.8v166.4c0,7.1-5.7,12.8-12.8,12.8ZM483.1,272h-166.4c-7,0-12.8-5.7-12.8-12.8V92.8c0-7,5.7-12.8,12.8-12.8h166.4c7,0,12.8,5.7,12.8,12.8v166.4c0,7-5.7,12.8-12.8,12.8ZM259.2,496H92.8c-7,0-12.8-5.7-12.8-12.8v-166.4c0-7,5.7-12.8,12.8-12.8h166.4c7,0,12.8,5.7,12.8,12.8v166.4c0,7.1-5.8,12.8-12.8,12.8ZM259.2,272H92.8c-7,0-12.8-5.7-12.8-12.8V92.8c0-7,5.7-12.8,12.8-12.8h166.4c7,0,12.8,5.7,12.8,12.8v166.4c0,7-5.8,12.8-12.8,12.8Z"/>
</svg>