<?xml version="1.0" encoding="UTF-8"?>
<svg id="Layer_1" data-name="Layer 1" xmlns="http://www.w3.org/2000/svg" version="1.1" viewBox="0 0 800 800">
  <defs>
    <style>
      .cls-1 {
        fill: #000;
        stroke-width: 0px;
      }
    </style>
  </defs>
  <path class="cls-1" d="M612.6,311.5l-29.7-6.9v-41.8c0-100.8-82-182.9-182.9-182.9s-156.3,56.4-177.1,137.1c-3.2,12.2,4.2,24.7,16.4,27.8,12.3,3.1,24.7-4.3,27.8-16.5,15.6-60.5,70.2-102.8,132.8-102.8s137.1,61.5,137.1,137.1v31.3l-123.9-28.6c-8.7-2.1-17.8-2.1-26.5,0l-199.3,45.9c-27,6.2-45.9,29.9-45.9,57.6v245.7c0,27.7,19,51.4,45.9,57.6l199.3,45.9c4.3,1.1,8.7,1.6,13.3,1.6s8.9-.5,13.3-1.6l199.3-45.9c27-6.2,45.9-29.9,45.9-57.6v-245.7c0-27.7-19-51.4-45.9-57.6h0ZM445.7,514.3h-91.4c-12.6,0-22.9-10.3-22.9-22.9s10.3-22.9,22.9-22.9h91.4c12.6,0,22.9,10.3,22.9,22.9s-10.3,22.9-22.9,22.9Z"/>
</svg>